<svg xmlns="http://www.w3.org/2000/svg" version="1.1" xmlns:xlink="http://www.w3.org/1999/xlink" xmlns:svgjs="http://svgjs.com/svgjs" width="1440" height="560" preserveAspectRatio="none" viewBox="0 0 1440 560"><g mask="url(&quot;#SvgjsMask1015&quot;)" fill="none"><path d="M571.41 669.04C725.96 657.54 833.45 354.51 1105.09 353.61 1376.73 352.71 1502.44 465.01 1638.77 465.61" stroke="rgba(51,121,194,0.58)" stroke-width="2"></path><path d="M691.81 630.7C834.84 621.61 940.34 353.07 1193.22 352.78 1446.09 352.49 1564.1 496.92 1694.62 498.38" stroke="rgba(51,121,194,0.58)" stroke-width="2"></path><path d="M860.59 615.41C970.05 570.85 922.77 235.37 1139.08 233.41 1355.39 231.45 1551.41 388.72 1696.06 390.21" stroke="rgba(51,121,194,0.58)" stroke-width="2"></path><path d="M382.99 598.07C500.89 587.21 576.44 342.25 780.73 341 985.03 339.75 979.6 411 1178.48 411 1377.35 411 1475.26 341.27 1576.22 341" stroke="rgba(51,121,194,0.58)" stroke-width="2"></path><path d="M153.42 591.08C269.73 589.14 373.21 443.53 594.71 443.46 816.2 443.39 815.35 513.46 1035.99 513.46 1256.64 513.46 1365.58 443.68 1477.28 443.46" stroke="rgba(51,121,194,0.58)" stroke-width="2"></path></g><defs><mask id="SvgjsMask1015"><rect width="1440" height="560" fill="#ffffff"></rect></mask></defs></svg>