<svg width="184" height="177" viewBox="0 0 184 177" fill="none" xmlns="http://www.w3.org/2000/svg">
<g opacity="0.5">
<path d="M181.125 -11.9062H2.875C1.28441 -11.9062 0 -13.2674 0 -14.9531C0 -16.6388 1.28441 -18 2.875 -18H181.125C182.716 -18 184 -16.6388 184 -14.9531C184 -13.2674 182.716 -11.9062 181.125 -11.9062ZM181.125 0.28125H2.875C1.28441 0.28125 0 -1.07994 0 -2.76562C0 -4.45131 1.28441 -5.8125 2.875 -5.8125H181.125C182.716 -5.8125 184 -4.45131 184 -2.76562C184 -1.07994 182.716 0.28125 181.125 0.28125Z" fill="white"/>
<path d="M91.9532 82.553C90.364 82.553 89.0782 81.1914 89.0782 79.5061V-2.76562C89.0782 -4.45131 90.364 -5.8125 91.9532 -5.8125C93.5438 -5.8125 94.8282 -4.45131 94.8282 -2.76562V79.5061C94.8282 81.1914 93.5438 82.553 91.9532 82.553ZM37.3828 45.9547C35.794 45.9547 34.5078 44.592 34.5078 42.9078V-2.76562C34.5078 -4.45131 35.794 -5.8125 37.3828 -5.8125C38.9734 -5.8125 40.2578 -4.45131 40.2578 -2.76562V42.9078C40.2578 44.592 38.9734 45.9547 37.3828 45.9547ZM126.497 134.381H57.4995C55.909 134.381 54.6245 133.018 54.6245 131.334C54.6245 129.649 55.909 128.287 57.4995 128.287H126.497C128.086 128.287 129.372 129.649 129.372 131.334C129.372 133.018 128.086 134.381 126.497 134.381Z" fill="white"/>
<path d="M92.0024 146.574C84.0904 146.574 77.6569 139.755 77.6569 131.37C77.6569 129.686 78.9413 128.323 80.5319 128.323C82.121 128.323 83.4069 129.686 83.4069 131.37C83.4069 136.391 87.2644 140.481 92.0024 140.481C96.7401 140.481 100.599 136.391 100.599 131.37C100.599 129.686 101.884 128.323 103.474 128.323C105.064 128.323 106.349 129.686 106.349 131.37C106.349 139.755 99.9141 146.574 92.0024 146.574ZM57.4995 134.381C55.909 134.381 54.6245 133.018 54.6245 131.334V116.086C54.6245 114.402 55.909 113.039 57.4995 113.039C59.0901 113.039 60.3745 114.402 60.3745 116.086V131.334C60.3745 133.018 59.0901 134.381 57.4995 134.381ZM126.5 134.381C124.909 134.381 123.625 133.018 123.625 131.334V116.08C123.625 114.396 124.909 113.034 126.5 113.034C128.09 113.034 129.375 114.396 129.375 116.08V131.334C129.375 133.018 128.09 134.381 126.5 134.381V134.381ZM92.0024 167.897C90.4133 167.897 89.1274 166.534 89.1274 164.85V155.709C89.1274 154.023 90.4133 152.662 92.0024 152.662C93.593 152.662 94.8774 154.023 94.8774 155.709V164.85C94.8774 166.534 93.593 167.897 92.0024 167.897ZM112.3 159.1C111.922 159.1 111.548 159.021 111.2 158.868C110.851 158.715 110.534 158.49 110.267 158.207L104.169 151.744C103.902 151.461 103.69 151.126 103.545 150.756C103.4 150.386 103.326 149.99 103.326 149.59C103.326 149.19 103.4 148.793 103.545 148.424C103.69 148.054 103.902 147.718 104.169 147.436C104.436 147.152 104.753 146.928 105.101 146.774C105.45 146.621 105.824 146.542 106.202 146.542C106.58 146.542 106.953 146.621 107.302 146.774C107.651 146.928 107.968 147.152 108.235 147.436L114.333 153.899C114.6 154.181 114.812 154.517 114.957 154.887C115.102 155.256 115.176 155.653 115.176 156.053C115.176 156.453 115.102 156.849 114.957 157.219C114.812 157.588 114.6 157.924 114.333 158.207C113.793 158.778 113.062 159.099 112.3 159.1ZM71.702 158.917C71.3244 158.917 70.9505 158.838 70.6017 158.685C70.2528 158.532 69.9359 158.307 69.6691 158.024C68.5446 156.835 68.5446 154.907 69.6691 153.715L75.7615 147.253C76.0284 146.97 76.3453 146.745 76.6941 146.592C77.0429 146.439 77.4168 146.36 77.7944 146.36C78.1719 146.36 78.5458 146.439 78.8946 146.592C79.2434 146.745 79.5603 146.97 79.8272 147.253C80.9516 148.441 80.9516 150.37 79.8272 151.561L73.7347 158.024C73.468 158.307 73.1511 158.532 72.8023 158.685C72.4535 158.838 72.0796 158.917 71.702 158.917ZM60.3828 70.3297C58.794 70.3297 57.5078 68.9669 57.5078 67.2828C57.5078 55.5237 48.4774 45.9547 37.3828 45.9547C26.2889 45.9547 17.2578 55.5237 17.2578 67.2828C17.2578 68.9669 15.9734 70.3297 14.3828 70.3297C12.794 70.3297 11.5078 68.9669 11.5078 67.2828C11.5078 52.16 23.1145 39.8609 37.3828 39.8609C51.6514 39.8609 63.2578 52.16 63.2578 67.2828C63.2578 68.9669 61.9734 70.3297 60.3828 70.3297ZM60.3828 76.4295H14.3828C12.794 76.4295 11.5078 75.0664 11.5078 73.3826C11.5078 71.6969 12.794 70.3357 14.3828 70.3357H60.3828C61.9734 70.3357 63.2578 71.6969 63.2578 73.3826C63.2578 75.0664 61.9734 76.4295 60.3828 76.4295Z" fill="white"/>
<path d="M37.3809 85.5564C31.0382 85.5564 25.8809 80.0907 25.8809 73.3689C25.8809 71.6848 27.1667 70.322 28.7559 70.322C30.3461 70.322 31.6309 71.6848 31.6309 73.3689C31.6309 76.73 34.2094 79.4627 37.3809 79.4627C40.5523 79.4627 43.1309 76.73 43.1309 73.3689C43.1309 71.6848 44.4167 70.322 46.0059 70.322C47.5961 70.322 48.8809 71.6848 48.8809 73.3689C48.8809 80.0907 43.7231 85.5564 37.3809 85.5564ZM146.617 45.9547C145.026 45.9547 143.742 44.592 143.742 42.9078V-2.76562C143.742 -4.45131 145.026 -5.8125 146.617 -5.8125C148.206 -5.8125 149.492 -4.45131 149.492 -2.76562V42.9078C149.492 44.592 148.206 45.9547 146.617 45.9547Z" fill="white"/>
<path d="M169.617 70.3297C168.027 70.3297 166.742 68.9669 166.742 67.2828C166.742 55.5237 157.711 45.9547 146.617 45.9547C135.523 45.9547 126.492 55.5237 126.492 67.2828C126.492 68.9669 125.206 70.3297 123.617 70.3297C122.027 70.3297 120.742 68.9669 120.742 67.2828C120.742 52.16 132.349 39.8609 146.617 39.8609C160.885 39.8609 172.492 52.16 172.492 67.2828C172.492 68.9669 171.206 70.3297 169.617 70.3297ZM126.451 119.098C124.862 119.098 123.576 117.735 123.576 116.051C123.576 97.5714 109.388 82.535 91.9512 82.535C74.5143 82.535 60.3262 97.5714 60.3262 116.051C60.3262 117.735 59.0418 119.098 57.4512 119.098C55.862 119.098 54.5762 117.735 54.5762 116.051C54.5762 94.2107 71.3435 76.4413 91.9512 76.4413C112.559 76.4413 129.326 94.2107 129.326 116.051C129.326 117.735 128.042 119.098 126.451 119.098ZM169.617 76.4295H123.617C122.027 76.4295 120.742 75.0664 120.742 73.3826C120.742 71.6969 122.027 70.3357 123.617 70.3357H169.617C171.206 70.3357 172.492 71.6969 172.492 73.3826C172.492 75.0664 171.206 76.4295 169.617 76.4295Z" fill="white"/>
<path d="M146.613 85.5564C140.271 85.5564 135.113 80.0907 135.113 73.3689C135.113 71.6847 136.398 70.322 137.988 70.322C139.578 70.322 140.863 71.6847 140.863 73.3689C140.863 76.73 143.442 79.4627 146.613 79.4627C149.785 79.4627 152.363 76.73 152.363 73.3689C152.363 71.6847 153.648 70.322 155.238 70.322C156.828 70.322 158.113 71.6847 158.113 73.3689C158.113 80.0907 152.956 85.5564 146.613 85.5564ZM14.3828 76.4295C12.794 76.4295 11.5078 75.0664 11.5078 73.3826V67.2828C11.5078 65.5971 12.794 64.2359 14.3828 64.2359C15.9734 64.2359 17.2578 65.5971 17.2578 67.2828V73.3826C17.2578 75.0664 15.9734 76.4295 14.3828 76.4295ZM60.3828 76.4295C58.794 76.4295 57.5078 75.0664 57.5078 73.3826V67.2828C57.5078 65.5971 58.794 64.2359 60.3828 64.2359C61.9734 64.2359 63.2578 65.5971 63.2578 67.2828V73.3826C63.2578 75.0664 61.9734 76.4295 60.3828 76.4295ZM123.616 76.4295C122.026 76.4295 120.741 75.0664 120.741 73.3826V67.2828C120.741 65.5971 122.026 64.2359 123.616 64.2359C125.205 64.2359 126.491 65.5971 126.491 67.2828V73.3826C126.491 75.0664 125.205 76.4295 123.616 76.4295ZM169.616 76.4295C168.026 76.4295 166.741 75.0664 166.741 73.3826V67.2828C166.741 65.5971 168.026 64.2359 169.616 64.2359C171.205 64.2359 172.491 65.5971 172.491 67.2828V73.3826C172.491 75.0664 171.205 76.4295 169.616 76.4295Z" fill="white"/>
</g>
</svg>
