<svg width="1440" height="852" viewBox="0 0 1440 852" fill="none" xmlns="http://www.w3.org/2000/svg">
<g clip-path="url(#clip0_350_16871)">
<path d="M0 0H1440V852H200C89.5431 852 0 762.457 0 652V0Z" fill="#0249AC"/>
<g clip-path="url(#clip1_350_16871)">
<g clip-path="url(#clip2_350_16871)">
<g clip-path="url(#clip3_350_16871)">
<mask id="mask0_350_16871" style="mask-type:luminance" maskUnits="userSpaceOnUse" x="806" y="472" width="635" height="381">
<path d="M1440 472.69H806.41V852.05H1440V472.69Z" fill="white"/>
</mask>
<g mask="url(#mask0_350_16871)">
<path d="M937.702 630.208C912.578 655.332 912.578 696.066 937.702 721.189C962.826 746.313 1003.56 746.313 1028.68 721.189L1165.53 584.341C1190.65 559.217 1190.65 518.484 1165.53 493.36C1140.41 468.236 1099.67 468.236 1074.55 493.36L937.702 630.208Z" fill="#6BD4F2"/>
<path d="M918.031 740.861C892.907 715.738 852.173 715.738 827.05 740.861C801.926 765.985 801.926 806.719 827.05 831.842C852.173 856.966 892.907 856.966 918.031 831.842C943.154 806.719 943.154 765.985 918.031 740.861Z" fill="#6BD4F2"/>
<path d="M816.337 1013.8C791.213 1038.92 791.213 1079.65 816.337 1104.78C841.46 1129.9 882.194 1129.9 907.318 1104.78L1192.56 819.537C1217.68 794.413 1217.68 753.679 1192.56 728.556C1167.44 703.432 1126.7 703.432 1101.58 728.556L816.337 1013.8Z" fill="#FFD929"/>
<path d="M1215.24 706.109C1189.98 680.843 1189.98 639.879 1215.24 614.613C1240.51 589.348 1281.47 589.348 1306.74 614.613L1534.25 842.122L1442.75 933.618L1215.24 706.109Z" fill="#FC6575"/>
<path d="M1357.84 609.005C1392.35 618.253 1427.79 597.928 1436.98 563.609C1446.18 529.289 1425.65 493.97 1391.14 484.722C1356.63 475.474 1321.19 495.799 1312 530.119C1302.8 564.438 1323.32 599.757 1357.84 609.005Z" fill="#FFD929"/>
</g>
</g>
</g>
</g>
</g>
<defs>
<clipPath id="clip0_350_16871">
<path d="M0 0H1440V852H200C89.5431 852 0 762.457 0 652V0Z" fill="white"/>
</clipPath>
<clipPath id="clip1_350_16871">
<rect width="633.59" height="379.36" fill="white" transform="translate(806.41 472.69)"/>
</clipPath>
<clipPath id="clip2_350_16871">
<rect width="633.59" height="379.36" fill="white" transform="translate(806.41 472.69)"/>
</clipPath>
<clipPath id="clip3_350_16871">
<rect width="633.59" height="379.36" fill="white" transform="translate(806.41 472.69)"/>
</clipPath>
</defs>
</svg>
