<svg xmlns="http://www.w3.org/2000/svg" id="Layer_1" enable-background="new 0 0 512.008 512.008" height="512" viewBox="0 0 512.008 512.008" width="512"><path d="m28.29 200.512c1.811.736 3.729 1.104 5.647 1.104 1.984 0 3.969-.394 5.833-1.181l44.867-18.937c7.632-3.221 11.208-12.02 7.986-19.652-3.221-7.632-12.017-11.209-19.652-7.987l-10.976 4.632c34.054-77.516 111.099-128.487 196.828-128.487 98.019 0 183.614 66.278 208.153 161.176 1.748 6.761 7.838 11.249 14.512 11.248 1.243 0 2.507-.156 3.766-.481 8.021-2.074 12.842-10.257 10.768-18.278-27.963-108.139-125.504-183.665-237.199-183.665-98.24 0-186.468 58.743-224.936 147.914l-5.064-12c-3.22-7.632-12.016-11.208-19.651-7.988-7.633 3.221-11.209 12.02-7.987 19.652l18.934 44.866c1.545 3.665 4.485 6.566 8.171 8.064z" fill="#ffd929"/><path d="m510.823 361.386-18.933-44.866c-1.547-3.666-4.486-6.566-8.172-8.064-3.684-1.498-7.814-1.47-11.48.077l-44.868 18.937c-7.632 3.221-11.208 12.02-7.986 19.652s12.019 11.209 19.652 7.987l12.562-5.302c-33.2 79.596-111.325 132.197-198.414 132.197-98.019 0-183.614-66.278-208.153-161.176-2.073-8.021-10.26-12.838-18.277-10.767-8.021 2.074-12.842 10.257-10.768 18.278 27.963 108.139 125.503 183.666 237.198 183.666 98.794 0 187.462-59.408 225.58-149.427l4.42 10.473c2.417 5.729 7.976 9.172 13.826 9.172 1.944 0 3.921-.381 5.825-1.184 7.634-3.223 11.21-12.021 7.988-19.653z" fill="#ffd929"/><path d="m421.504 256.004c0-23.947-18.802-43.585-42.418-44.927-1.279-3.505-2.709-6.954-4.283-10.336 15.75-17.649 15.16-44.832-1.773-61.764-8.476-8.476-19.776-13.144-31.819-13.144-11.176 0-21.712 4.02-29.945 11.372-3.381-1.574-6.829-3.003-10.334-4.282-1.342-23.617-20.98-42.419-44.927-42.419s-43.585 18.803-44.927 42.419c-3.506 1.279-6.953 2.708-10.335 4.282-8.232-7.353-18.769-11.372-29.944-11.372-12.043 0-23.344 4.668-31.82 13.144-16.933 16.933-17.523 44.114-1.772 61.764-1.575 3.382-3.005 6.832-4.283 10.336-23.617 1.342-42.418 20.98-42.418 44.927s18.802 43.585 42.418 44.927c1.279 3.506 2.708 6.954 4.282 10.336-15.749 17.648-15.159 44.83 1.773 61.763 8.476 8.476 19.776 13.144 31.819 13.144 11.176 0 21.712-4.02 29.945-11.372 3.383 1.575 6.831 3.003 10.335 4.283 1.342 23.617 20.98 42.419 44.927 42.419s43.585-18.803 44.927-42.419c3.505-1.279 6.953-2.708 10.335-4.282 8.232 7.353 18.769 11.372 29.944 11.372 12.044 0 23.344-4.668 31.82-13.145 16.933-16.933 17.523-44.114 1.772-61.763 1.575-3.382 3.004-6.831 4.283-10.335 23.617-1.343 42.418-20.981 42.418-44.928zm-53.424 15c-6.794 0-12.74 4.567-14.492 11.131-2.278 8.534-5.679 16.738-10.106 24.386-3.405 5.881-2.431 13.318 2.376 18.123l5.96 5.959c5.849 5.849 5.849 15.365 0 21.213-2.81 2.81-6.577 4.357-10.607 4.357s-7.797-1.547-10.606-4.357l-5.961-5.961c-4.806-4.805-12.24-5.781-18.122-2.375-7.643 4.425-15.848 7.825-24.387 10.105-6.563 1.753-11.13 7.698-11.13 14.492v8.425c0 8.271-6.729 15-15 15s-15-6.729-15-15v-8.425c0-6.794-4.566-12.74-11.131-14.492-8.532-2.278-16.737-5.679-24.388-10.106-2.344-1.357-4.936-2.019-7.509-2.019-3.882 0-7.722 1.504-10.611 4.394l-5.961 5.96c-2.81 2.81-6.577 4.357-10.607 4.357s-7.797-1.547-10.606-4.357c-5.848-5.849-5.848-15.365 0-21.213l5.96-5.96c4.806-4.805 5.78-12.241 2.375-18.122-4.425-7.643-7.825-15.848-10.105-24.388-1.753-6.564-7.698-11.13-14.492-11.13h-8.424c-8.271 0-15-6.729-15-15s6.729-15 15-15h8.424c6.794 0 12.74-4.567 14.492-11.131 2.278-8.534 5.679-16.739 10.106-24.386 3.405-5.881 2.431-13.318-2.376-18.123l-5.96-5.959c-5.849-5.849-5.849-15.365 0-21.213 2.81-2.81 6.577-4.357 10.607-4.357s7.797 1.547 10.606 4.357l5.961 5.961c4.806 4.806 12.24 5.781 18.122 2.375 7.641-4.423 15.846-7.824 24.388-10.105 6.563-1.753 11.129-7.698 11.129-14.492v-8.425c0-8.271 6.729-15 15-15s15 6.729 15 15v8.425c0 6.793 4.565 12.739 11.129 14.492 8.539 2.281 16.744 5.681 24.389 10.106 5.882 3.405 13.315 2.43 18.121-2.375l5.961-5.961c2.81-2.81 6.576-4.357 10.606-4.357s7.797 1.547 10.607 4.357c5.849 5.849 5.849 15.365.001 21.212l-5.961 5.96c-4.807 4.806-5.781 12.242-2.375 18.124 4.425 7.643 7.825 15.847 10.105 24.388 1.753 6.563 7.698 11.129 14.492 11.129h8.424c8.271 0 15 6.729 15 15s-6.729 15-15 15h-8.424z" fill="#ffd929"/><path d="m256.004 211.003c-24.813 0-45 20.187-45 45s20.187 45 45 45 45-20.187 45-45-20.187-45-45-45zm0 60c-8.271 0-15-6.729-15-15s6.729-15 15-15 15 6.729 15 15-6.729 15-15 15z" fill="#ffd929"/></svg>