<?xml version="1.0" encoding="UTF-8"?>
<svg xmlns="http://www.w3.org/2000/svg" xmlns:xlink="http://www.w3.org/1999/xlink" width="32px" height="32px" viewBox="0 0 32 32" version="1.1">
<defs>
<linearGradient id="linear0" gradientUnits="userSpaceOnUse" x1="0.681422" y1="11.8031" x2="19.9733" y2="11.8031" gradientTransform="matrix(1.6,0,0,1.333333,0,0)">
<stop offset="0" style="stop-color:rgb(100%,0%,0%);stop-opacity:1;"/>
<stop offset="0.1091" style="stop-color:rgb(100%,9.803922%,3.137255%);stop-opacity:1;"/>
<stop offset="0.4232" style="stop-color:rgb(100%,36.862745%,12.156863%);stop-opacity:1;"/>
<stop offset="0.469" style="stop-color:rgb(100%,35.686275%,11.764706%);stop-opacity:1;"/>
<stop offset="1" style="stop-color:rgb(100%,53.72549%,17.647059%);stop-opacity:1;"/>
</linearGradient>
<filter id="alpha" filterUnits="objectBoundingBox" x="0%" y="0%" width="100%" height="100%">
  <feColorMatrix type="matrix" in="SourceGraphic" values="0 0 0 0 1 0 0 0 0 1 0 0 0 0 1 0 0 0 1 0"/>
</filter>
<mask id="mask0">
  <g filter="url(#alpha)">
<rect x="0" y="0" width="32" height="32" style="fill:rgb(0%,0%,0%);fill-opacity:0.74902;stroke:none;"/>
  </g>
</mask>
<clipPath id="clip1">
  <rect x="0" y="0" width="32" height="32"/>
</clipPath>
<g id="surface5" clip-path="url(#clip1)">
<path style=" stroke:none;fill-rule:nonzero;fill:rgb(0%,0%,0%);fill-opacity:1;" d="M 11.0625 2.5 C 11.328125 2.5 11.542969 2.347656 11.542969 2.15625 C 11.542969 1.964844 11.328125 1.8125 11.0625 1.8125 C 10.796875 1.8125 10.582031 1.964844 10.582031 2.15625 C 10.582031 2.347656 10.796875 2.5 11.0625 2.5 Z M 11.0625 2.5 "/>
</g>
</defs>
<g id="surface1">
<path style=" stroke:none;fill-rule:nonzero;fill:url(#linear0);" d="M 31.875 12.234375 C 31.875 12.234375 31.714844 12.117188 31.714844 12.234375 C 31.234375 12.804688 28.511719 13.953125 15.0625 13.492188 C 15.0625 13.492188 18.265625 1.125 8.660156 0.09375 C 8.660156 0.09375 3.21875 -0.25 1.136719 0.324219 C 1.136719 0.324219 10.902344 -0.59375 10.742188 6.738281 L 10.742188 12.460938 C 10.742188 12.460938 10.421875 15.554688 13.144531 15.554688 L 16.183594 15.785156 L 17.144531 15.785156 C 16.824219 17.386719 16.023438 24.488281 10.261719 28.835938 C 10.261719 28.835938 10.101562 28.953125 9.941406 29.066406 L 11.382812 31.472656 C 11.542969 31.355469 13.304688 31.242188 13.625 31.011719 C 15.222656 29.753906 18.105469 26.089844 18.265625 15.785156 L 22.910156 15.785156 C 22.429688 17.617188 20.507812 26.320312 20.507812 27.121094 C 20.507812 27.121094 20.1875 29.753906 23.390625 30.671875 C 23.390625 30.671875 29.152344 32.042969 29.792969 25.515625 C 29.792969 25.515625 27.230469 28.953125 25.308594 28.953125 C 25.308594 28.953125 20.988281 29.066406 24.667969 15.898438 C 24.667969 15.898438 24.667969 15.898438 24.828125 15.898438 C 25.628906 15.898438 31.074219 16.125 31.554688 14.292969 C 31.714844 14.179688 32.035156 13.148438 31.875 12.234375 Z M 31.875 12.234375 "/>
<use xlink:href="#surface5" mask="url(#mask0)"/>
<path style=" stroke:none;fill-rule:nonzero;fill:rgb(100%,100%,100%);fill-opacity:1;" d="M 11.0625 2.5 C 11.328125 2.5 11.542969 2.347656 11.542969 2.15625 C 11.542969 1.964844 11.328125 1.8125 11.0625 1.8125 C 10.796875 1.8125 10.582031 1.964844 10.582031 2.15625 C 10.582031 2.347656 10.796875 2.5 11.0625 2.5 Z M 11.0625 2.5 "/>
</g>
</svg>
