<svg width="40" height="40" viewBox="0 0 40 40" fill="none" xmlns="http://www.w3.org/2000/svg">
<path d="M23.6967 39.3938H3.51493C1.99978 39.3938 0.727051 38.1211 0.727051 36.6059V6.90897C0.727051 5.39382 1.99978 4.12109 3.51493 4.12109H23.6967C25.2119 4.12109 26.4846 5.39382 26.4846 6.90897V36.6059C26.4846 38.1211 25.2119 39.3938 23.6967 39.3938ZM3.51493 5.33321C2.66645 5.33321 1.93917 6.06049 1.93917 6.90897V36.6059C1.93917 37.4544 2.66645 38.1817 3.51493 38.1817H23.6967C24.5452 38.1817 25.2725 37.4544 25.2725 36.6059V6.90897C25.2725 6.06049 24.5452 5.33321 23.6967 5.33321H3.51493Z" fill="#101F2D"/>
<path d="M16.7878 3.75737V2.42404C16.7878 1.75737 16.2424 1.21191 15.5757 1.21191H11.5757C10.9091 1.21191 10.3636 1.75737 10.3636 2.42404V3.81797H7.03027V4.18161C7.03027 5.87858 8.42421 7.27252 10.1212 7.27252H16.9697C18.6666 7.27252 20.0606 5.87858 20.0606 4.18161V3.75737H16.7878Z" fill="#6BD4F2"/>
<path d="M17.0303 7.87868H10.1818C8.12123 7.87868 6.48486 6.24232 6.48486 4.18171V3.75747C6.48486 3.39384 6.72729 3.15141 7.09092 3.15141H9.8182V2.42414C9.8182 1.45444 10.6061 0.605957 11.6364 0.605957H15.6364C16.6061 0.605957 17.4546 1.39384 17.4546 2.42414V3.21202H20.1818C20.5455 3.21202 20.7879 3.45444 20.7879 3.81808V4.18171C20.7273 6.18171 19.0909 7.87868 17.0303 7.87868ZM7.69698 4.36353C7.8182 5.63626 8.90911 6.60596 10.1818 6.60596H17.0303C18.303 6.60596 19.394 5.63626 19.5152 4.36353H16.7879C16.4243 4.36353 16.1818 4.12111 16.1818 3.75747V2.42414C16.1818 2.12111 15.9394 1.81808 15.5758 1.81808H11.5758C11.2727 1.81808 10.9697 2.0605 10.9697 2.42414V3.81808C10.9697 4.18171 10.7273 4.42414 10.3637 4.42414H7.69698V4.36353Z" fill="#101F2D"/>
<path d="M36.6057 35.5756H32.9087V17.6968C32.9087 17.1514 33.3935 16.6665 33.939 16.6665H35.5754C36.1208 16.6665 36.6057 17.1514 36.6057 17.6968V35.5756Z" fill="#FC6575"/>
<path d="M36.6058 36.1818H32.9088C32.5452 36.1818 32.3027 35.9393 32.3027 35.5757V17.6969C32.3027 16.7878 33.03 16.0605 33.9391 16.0605H35.5755C36.4846 16.0605 37.2118 16.7878 37.2118 17.6969V35.5757C37.2118 35.8787 36.9694 36.1818 36.6058 36.1818ZM33.5149 34.9696H35.9997V17.6969C35.9997 17.4545 35.8179 17.2727 35.5755 17.2727H33.9391C33.6967 17.2727 33.5149 17.4545 33.5149 17.6969V34.9696Z" fill="#101F2D"/>
<path d="M34.7875 39.3939C34.5451 39.3939 34.3633 39.2727 34.242 39.0909L32.3633 35.8787C32.1814 35.5757 32.3027 35.2121 32.6057 35.0303C32.9087 34.8484 33.2723 34.9696 33.4542 35.2727L34.7875 37.5757L36.1208 35.2727C36.3027 34.9696 36.6663 34.909 36.9693 35.0303C37.2723 35.2121 37.333 35.5757 37.2117 35.8787L35.333 39.0909C35.2117 39.2727 34.9693 39.3939 34.7875 39.3939Z" fill="#101F2D"/>
<path d="M38.6057 24.3637C38.3027 24.3637 38.0603 24.1212 37.9996 23.8182L37.8784 22.3637C37.8784 22.3031 37.8784 22.2425 37.8784 22.1818L38.1209 20.7879C38.1815 20.6061 38.0603 20.4243 37.9996 20.3637C37.939 20.3031 37.8178 20.1818 37.5754 20.1818H32.9693C32.6057 20.1818 32.3633 19.9394 32.3633 19.5758C32.3633 19.2122 32.6057 18.9697 32.9693 18.9697H37.5754C38.0603 18.9697 38.5451 19.2122 38.9087 19.5758C39.2724 19.9394 39.3936 20.4849 39.333 20.9697L39.1512 22.3031L39.2724 23.697C39.333 24 39.0906 24.3031 38.7269 24.3637C38.6057 24.3637 38.6057 24.3637 38.6057 24.3637Z" fill="#101F2D"/>
<path d="M23.6362 16.6663V22.9693L26.5453 20.9087L29.3938 22.9693V16.9087" fill="#FC6575"/>
<path d="M29.3939 23.5755C29.2727 23.5755 29.1515 23.5148 29.0303 23.4542L26.4848 21.6361L23.9394 23.4542C23.7575 23.5755 23.5151 23.5755 23.3333 23.5148C23.1515 23.3936 23.0303 23.2118 23.0303 22.9694V16.6664C23.0303 16.3027 23.2727 16.0603 23.6363 16.0603C24 16.0603 24.2424 16.3027 24.2424 16.6664V21.8179L26.1818 20.4239C26.3636 20.3027 26.6666 20.3027 26.9091 20.4239L28.8485 21.8179V16.9694C28.8485 16.6058 29.0909 16.3633 29.4545 16.3633C29.8182 16.3633 30.0606 16.6058 30.0606 16.9694V23.03C30.0606 23.2724 29.9394 23.4542 29.7575 23.5755C29.5757 23.5755 29.5151 23.5755 29.3939 23.5755Z" fill="#101F2D"/>
<path d="M30.1372 16.0624C32.125 14.0746 32.125 10.8517 30.1372 8.86386C28.1494 6.87604 24.9265 6.87604 22.9386 8.86386C20.9508 10.8517 20.9508 14.0746 22.9386 16.0624C24.9265 18.0502 28.1493 18.0502 30.1372 16.0624Z" fill="#6BD4F2"/>
<path d="M26.5451 18.1815C23.3936 18.1815 20.8481 15.6361 20.8481 12.4846C20.8481 9.33305 23.3936 6.7876 26.5451 6.7876C29.6966 6.7876 32.2421 9.33305 32.2421 12.4846C32.2421 15.6361 29.636 18.1815 26.5451 18.1815ZM26.5451 7.99972C24.0603 7.99972 22.0603 9.99972 22.0603 12.4846C22.0603 14.9694 24.0603 16.9694 26.5451 16.9694C29.03 16.9694 31.03 14.9694 31.03 12.4846C30.9694 9.99972 28.9694 7.99972 26.5451 7.99972Z" fill="#101F2D"/>
<path d="M28.1814 14.6059L26.5451 13.818L24.9693 14.6665L25.2117 12.9089L23.8784 11.6968L25.6966 11.3937L26.4239 9.69678L27.2724 11.3331L29.0905 11.515L27.8178 12.7877L28.1814 14.6059Z" fill="white"/>
<path d="M9.15115 20.3634C8.78751 20.3634 8.48448 20.3028 8.12085 20.2422C7.81782 20.1816 7.636 19.8786 7.636 19.5756C7.636 19.3331 7.57539 19.1513 7.51479 19.1513C7.45418 19.1513 7.27236 19.2119 7.09054 19.3938C6.90873 19.6362 6.54509 19.6968 6.30266 19.515C5.636 19.0907 5.09054 18.6059 4.6663 17.9392C4.48448 17.6968 4.54509 17.3331 4.78751 17.1513C4.96933 16.9695 5.02994 16.7877 5.02994 16.7271C5.02994 16.6665 4.84812 16.6059 4.6057 16.6059C4.30266 16.6665 3.99963 16.4241 3.93903 16.121C3.75721 15.3938 3.75721 14.6059 3.87842 13.8786C3.93903 13.5756 4.18145 13.3938 4.54509 13.3938C4.78751 13.3938 4.96933 13.3331 4.96933 13.2725C4.96933 13.2119 4.90873 13.0301 4.72691 12.8483C4.48448 12.7271 4.42388 12.4241 4.6057 12.121C5.02994 11.4544 5.51479 10.9089 6.18145 10.4847C6.42388 10.3028 6.78751 10.3634 6.96933 10.6059C7.15115 10.7877 7.33297 10.8483 7.39357 10.8483C7.45418 10.8483 7.51479 10.6665 7.51479 10.4241C7.45418 10.121 7.6966 9.81799 7.99963 9.75739C8.72691 9.57557 9.51479 9.57557 10.2421 9.69678C10.5451 9.75739 10.7269 10.0604 10.7269 10.3634C10.7269 10.6059 10.7875 10.7877 10.8481 10.7877C10.9087 10.7877 11.0905 10.7271 11.2724 10.5453C11.4542 10.3028 11.8178 10.2422 12.0602 10.4241C12.7269 10.8483 13.2724 11.3331 13.6966 11.9998C13.8784 12.2422 13.8178 12.6059 13.5754 12.7877C13.3936 12.9695 13.333 13.1513 13.333 13.2119C13.333 13.2725 13.5148 13.3331 13.7572 13.3331C14.0602 13.2725 14.3633 13.515 14.4239 13.818C14.6057 14.5453 14.6057 15.3331 14.4845 16.0604C14.4239 16.3634 14.1815 16.5453 13.8178 16.5453C13.5754 16.5453 13.3936 16.6059 13.3936 16.6665C13.3936 16.7271 13.4542 16.9089 13.636 17.0907C13.8784 17.2725 13.939 17.6362 13.7572 17.8786C13.333 18.5453 12.8481 19.0907 12.1815 19.515C11.939 19.6968 11.5754 19.6362 11.3936 19.3938C11.2118 19.2119 11.0299 19.1513 10.9693 19.1513C10.9087 19.1513 10.8481 19.3331 10.8481 19.5756C10.9087 19.8786 10.6663 20.1816 10.3633 20.2422C9.93903 20.3028 9.57539 20.3634 9.15115 20.3634ZM8.78751 19.0907H9.636C9.6966 18.5453 9.99963 18.1816 10.4239 17.9392C10.8481 17.7574 11.3936 17.818 11.8178 18.121C11.9996 17.9392 12.2421 17.7574 12.3633 17.515C12.0602 17.0907 11.9996 16.6059 12.1208 16.121C12.3027 15.6968 12.7269 15.3938 13.2118 15.2725C13.2118 14.9695 13.2118 14.7271 13.2118 14.4241C12.6663 14.3634 12.3027 14.0604 12.0602 13.6362C11.8784 13.2119 11.939 12.6665 12.2421 12.2422C12.0602 11.9998 11.8784 11.818 11.636 11.6968C11.2118 11.9998 10.7269 12.0604 10.2421 11.9392C9.81782 11.7574 9.51479 11.3331 9.39357 10.8483C9.09054 10.8483 8.84812 10.8483 8.54509 10.8483C8.48448 11.3938 8.18145 11.7574 7.75721 11.9998C7.33297 12.1816 6.78751 12.121 6.36327 11.818C6.18145 11.9998 5.93903 12.1816 5.81782 12.4241C6.12085 12.8483 6.18145 13.3331 6.06024 13.818C5.87842 14.2422 5.45418 14.5453 4.96933 14.6665V15.515C5.51479 15.5756 5.87842 15.8786 6.12085 16.3028C6.30267 16.7271 6.24206 17.2725 5.93903 17.6968C6.12085 17.8786 6.30266 18.121 6.54509 18.2422C6.96933 17.9392 7.45418 17.8786 7.93903 17.9998C8.42388 18.1816 8.72691 18.6059 8.78751 19.0907Z" fill="#101F2D"/>
<path d="M11.0907 14.9694C11.0907 16.0603 10.2422 16.9088 9.15131 16.9088C8.0604 16.9088 7.21191 16.0603 7.21191 14.9694C7.21191 13.8785 8.0604 13.03 9.15131 13.03C10.2422 13.03 11.0907 13.9391 11.0907 14.9694Z" fill="#FC6575"/>
<path d="M18.363 12.6059H16.7267C16.363 12.6059 16.1206 12.3635 16.1206 11.9999C16.1206 11.6362 16.363 11.3938 16.7267 11.3938H18.363C18.7267 11.3938 18.9691 11.6362 18.9691 11.9999C18.9691 12.3635 18.7267 12.6059 18.363 12.6059Z" fill="#101F2D"/>
<path d="M19.3933 15.5756H16.7267C16.363 15.5756 16.1206 15.3332 16.1206 14.9696C16.1206 14.6059 16.363 14.3635 16.7267 14.3635H19.3933C19.757 14.3635 19.9994 14.6059 19.9994 14.9696C19.9994 15.3332 19.757 15.5756 19.3933 15.5756Z" fill="#101F2D"/>
<path d="M19.9993 18.6059H16.7872C16.4236 18.6059 16.1812 18.3635 16.1812 17.9999C16.1812 17.6362 16.4236 17.3938 16.7872 17.3938H19.9993C20.363 17.3938 20.6054 17.6362 20.6054 17.9999C20.6054 18.3635 20.3024 18.6059 19.9993 18.6059Z" fill="#101F2D"/>
<path d="M6.24189 25.2118C7.1791 25.2118 7.93886 24.4521 7.93886 23.5148C7.93886 22.5776 7.1791 21.8179 6.24189 21.8179C5.30468 21.8179 4.54492 22.5776 4.54492 23.5148C4.54492 24.4521 5.30468 25.2118 6.24189 25.2118Z" fill="#6BD4F2"/>
<path d="M6.242 25.818C4.96927 25.818 3.93896 24.7877 3.93896 23.5149C3.93896 22.2422 4.96927 21.2119 6.242 21.2119C7.51472 21.2119 8.54503 22.2422 8.54503 23.5149C8.54503 24.7877 7.51472 25.818 6.242 25.818ZM6.242 22.424C5.63593 22.424 5.15109 22.9089 5.15109 23.5149C5.15109 24.121 5.63593 24.6059 6.242 24.6059C6.84806 24.6059 7.3329 24.121 7.3329 23.5149C7.3329 22.9089 6.84806 22.424 6.242 22.424Z" fill="#6BD4F2"/>
<path d="M6.24189 30.5453C7.1791 30.5453 7.93886 29.7855 7.93886 28.8483C7.93886 27.9111 7.1791 27.1514 6.24189 27.1514C5.30468 27.1514 4.54492 27.9111 4.54492 28.8483C4.54492 29.7855 5.30468 30.5453 6.24189 30.5453Z" fill="#FC6575"/>
<path d="M6.242 31.212C4.96927 31.212 3.93896 30.1817 3.93896 28.909C3.93896 27.6363 4.96927 26.606 6.242 26.606C7.51472 26.606 8.54503 27.6363 8.54503 28.909C8.54503 30.1817 7.51472 31.212 6.242 31.212ZM6.242 27.7575C5.63593 27.7575 5.15109 28.2423 5.15109 28.8484C5.15109 29.4544 5.63593 29.9393 6.242 29.9393C6.84806 29.9393 7.3329 29.4544 7.3329 28.8484C7.3329 28.2423 6.84806 27.7575 6.242 27.7575Z" fill="#FC6575"/>
<path d="M6.24189 35.9391C7.1791 35.9391 7.93886 35.1793 7.93886 34.2421C7.93886 33.3049 7.1791 32.5452 6.24189 32.5452C5.30468 32.5452 4.54492 33.3049 4.54492 34.2421C4.54492 35.1793 5.30468 35.9391 6.24189 35.9391Z" fill="#6BD4F2"/>
<path d="M6.242 36.5453C4.96927 36.5453 3.93896 35.515 3.93896 34.2422C3.93896 32.9695 4.96927 31.9392 6.242 31.9392C7.51472 31.9392 8.54503 32.9695 8.54503 34.2422C8.54503 35.515 7.51472 36.5453 6.242 36.5453ZM6.242 33.0907C5.63593 33.0907 5.15109 33.5756 5.15109 34.1816C5.15109 34.7877 5.63593 35.2725 6.242 35.2725C6.84806 35.2725 7.3329 34.7877 7.3329 34.1816C7.3329 33.5756 6.84806 33.0907 6.242 33.0907Z" fill="#6BD4F2"/>
<path d="M15.6358 22.7878H10.7267C10.363 22.7878 10.1206 22.5454 10.1206 22.1817C10.1206 21.8181 10.363 21.5757 10.7267 21.5757H15.6358C15.9994 21.5757 16.2418 21.8181 16.2418 22.1817C16.2418 22.5454 15.9994 22.7878 15.6358 22.7878Z" fill="#101F2D"/>
<path d="M22.1812 25.5151H10.7267C10.363 25.5151 10.1206 25.2727 10.1206 24.909C10.1206 24.5454 10.363 24.303 10.7267 24.303H22.1812C22.5448 24.303 22.7873 24.5454 22.7873 24.909C22.7873 25.2727 22.5448 25.5151 22.1812 25.5151Z" fill="#101F2D"/>
<path d="M15.6358 28.1211H10.7267C10.363 28.1211 10.1206 27.8786 10.1206 27.515C10.1206 27.1514 10.363 26.9089 10.7267 26.9089H15.6358C15.9994 26.9089 16.2418 27.1514 16.2418 27.515C16.2418 27.8786 15.9994 28.1211 15.6358 28.1211Z" fill="#101F2D"/>
<path d="M22.1812 30.8484H10.7267C10.363 30.8484 10.1206 30.6059 10.1206 30.2423C10.1206 29.8787 10.363 29.6362 10.7267 29.6362H22.1812C22.5448 29.6362 22.7873 29.8787 22.7873 30.2423C22.7873 30.6059 22.5448 30.8484 22.1812 30.8484Z" fill="#101F2D"/>
<path d="M15.6358 33.4543H10.7267C10.363 33.4543 10.1206 33.2119 10.1206 32.8482C10.1206 32.4846 10.363 32.2422 10.7267 32.2422H15.6358C15.9994 32.2422 16.2418 32.4846 16.2418 32.8482C16.2418 33.2119 15.9994 33.4543 15.6358 33.4543Z" fill="#101F2D"/>
<path d="M22.1812 36.1816H10.7267C10.363 36.1816 10.1206 35.9392 10.1206 35.5755C10.1206 35.2119 10.363 34.9695 10.7267 34.9695H22.1812C22.5448 34.9695 22.7873 35.2119 22.7873 35.5755C22.7873 35.9392 22.5448 36.1816 22.1812 36.1816Z" fill="#101F2D"/>
</svg>
