<svg width="328" height="220" viewBox="0 0 328 220" fill="none" xmlns="http://www.w3.org/2000/svg">
<path d="M323.909 0.385742H4.09317C1.97842 0.385742 0.224609 2.13956 0.224609 4.25431C0.224609 6.42062 1.97842 8.12287 4.09317 8.12287H41.852V148.584L16.1636 195.628C15.9051 196.144 15.6473 197.795 15.8542 198.569L21.1672 216.778C21.6313 218.428 23.1273 219.615 24.8811 219.615H66.5601C68.2624 219.615 69.8099 218.428 70.274 216.778L75.587 198.569C75.7417 198.053 75.6385 196.299 75.226 195.628L49.5892 148.585V8.12356H120.877V92.4104L87.4512 139.351C86.6262 140.537 86.523 142.085 87.1418 143.375C87.8121 144.664 89.1534 145.438 90.5979 145.438H109.993C109.89 146.108 109.683 146.779 109.683 147.398C109.683 155.755 116.44 162.512 124.745 162.512C133.102 162.512 139.859 155.755 139.859 147.398C139.859 146.779 139.808 146.108 139.705 145.438H158.945C160.389 145.438 161.73 144.664 162.349 143.375C163.02 142.085 162.917 140.537 162.092 139.351L128.615 92.4104V8.12356H199.747V148.585L174.111 195.628C173.852 196.092 173.543 197.795 173.801 198.569L179.063 216.778C179.527 218.428 181.074 219.615 182.776 219.615H224.455C226.209 219.615 227.705 218.428 228.169 216.778L233.482 198.569C233.843 197.33 233.276 196.144 233.173 195.628L207.485 148.585V8.12356H278.824V92.4104L245.347 139.351C244.522 140.537 244.419 142.085 245.089 143.375C245.759 144.664 247.049 145.438 248.493 145.438H267.888C267.785 146.108 267.579 146.779 267.579 147.398C267.579 155.755 274.388 162.512 282.693 162.512C290.998 162.512 297.755 155.755 297.755 147.398C297.755 146.779 297.704 146.108 297.601 145.438H316.841C318.285 145.438 319.626 144.664 320.297 143.375C320.968 142.085 320.813 140.537 319.988 139.351L286.562 92.4104V8.12356H323.909C326.023 8.12356 327.777 6.42131 327.777 4.255C327.777 2.13956 326.023 0.385742 323.909 0.385742ZM66.7155 201.354L63.6719 211.877H27.77L24.7264 201.354H66.7155ZM131.813 145.438C132.019 146.108 132.122 146.728 132.122 147.398C132.122 151.473 128.821 154.774 124.746 154.774C120.722 154.774 117.421 151.473 117.421 147.398C117.421 146.779 117.524 146.108 117.679 145.438H131.813ZM224.611 201.354L221.567 211.877H185.718L182.622 201.354H224.611ZM289.76 145.438C289.915 146.108 290.018 146.728 290.018 147.398C290.018 151.473 286.717 154.774 282.694 154.774C278.618 154.774 275.317 151.473 275.317 147.398C275.317 146.779 275.421 146.108 275.627 145.438H289.76Z" fill="black" fill-opacity="0.5"/>
</svg>
