<svg width="106" height="119" viewBox="0 0 106 119" fill="none" xmlns="http://www.w3.org/2000/svg">
<g opacity="0.5">
<path d="M26.4341 44.908C26.5397 45.1251 26.6413 45.3421 26.7531 45.5552C27.966 47.889 29.7006 49.9116 31.8223 51.4659C33.9439 53.0202 36.3954 54.0644 38.9862 54.5172C42.3153 55.1117 45.7464 54.6794 48.824 53.2778V77.1543C48.8382 78.995 48.4278 80.8143 47.6247 82.4707C46.8216 84.1271 45.6475 85.576 44.1935 86.7049C41.1047 89.0375 37.1242 90.2205 32.3637 90.2205C27.4141 90.2205 23.63 88.0434 21.1168 83.7503C21.0337 83.6068 20.9229 83.4812 20.7911 83.3806C20.6592 83.28 20.5087 83.2064 20.3484 83.1641C20.188 83.1218 20.0208 83.1116 19.8565 83.134C19.6921 83.1565 19.5338 83.2112 19.3907 83.295C19.2475 83.3788 19.1224 83.49 19.0223 83.6223C18.9223 83.7546 18.8493 83.9054 18.8077 84.0659C18.7661 84.2265 18.7566 84.3937 18.7797 84.5579C18.8029 84.7222 18.8582 84.8802 18.9426 85.023C21.8979 90.0711 26.5397 92.7395 32.3641 92.7395C37.6867 92.7395 42.1781 91.3854 45.7132 88.7148C47.4774 87.3505 48.9032 85.5978 49.8798 83.5929C50.8564 81.5879 51.3574 79.3848 51.3441 77.1547V51.1655C51.3441 50.94 51.2836 50.7188 51.1689 50.5247C51.0543 50.3306 50.8896 50.1709 50.6922 50.0621C50.4947 49.9533 50.2717 49.8996 50.0464 49.9064C49.8211 49.9132 49.6017 49.9803 49.4112 50.1008C47.1779 51.5136 44.5892 52.2627 41.9465 52.2609C39.3316 52.2571 36.7655 51.5523 34.5155 50.22C32.2655 48.8877 30.4137 46.9765 29.1531 44.6855C30.1314 44.5122 31.0892 44.2379 32.011 43.8672C32.8824 45.2624 34.0377 46.4586 35.4017 47.3779C36.7657 48.2972 38.308 48.9192 39.9282 49.2033C40.5911 49.3212 41.2631 49.3806 41.9364 49.3809C44.7096 49.384 47.3837 48.3499 49.4332 46.4817L49.532 46.3905C50.1049 45.8541 50.5615 45.2056 50.8733 44.4853C51.1851 43.765 51.3454 42.9883 51.3445 42.2035V8.48121H54.2234V42.202C54.2231 42.989 54.3848 43.7677 54.6982 44.4896C55.0116 45.2115 55.4701 45.8613 56.0452 46.3985L56.14 46.4853C58.1885 48.3509 60.8604 49.3832 63.6311 49.3794C64.3044 49.3791 64.9763 49.3197 65.6392 49.2018C67.5259 48.8684 69.303 48.0804 70.8168 46.9061C71.0745 46.6988 71.2403 46.3986 71.2786 46.0702C71.3168 45.7417 71.2244 45.4114 71.0213 45.1505C70.8181 44.8896 70.5205 44.7191 70.1927 44.6757C69.8649 44.6323 69.5332 44.7195 69.2692 44.9185C68.0789 45.8414 66.6818 46.4605 65.1986 46.7223C63.8927 46.962 62.549 46.8973 61.2721 46.5334C59.9952 46.1695 58.8194 45.5161 57.836 44.624L57.7528 44.5477C57.4326 44.247 57.1776 43.8836 57.0037 43.4802C56.8297 43.0769 56.7405 42.642 56.7416 42.2028V8.48121H63.8322C65.3775 8.4792 66.8588 7.86438 67.9514 6.77162C69.044 5.67885 69.6585 4.19736 69.6602 2.6521V1.2593C69.6602 1.0939 69.6277 0.930115 69.5643 0.777305C69.501 0.624496 69.4082 0.485655 69.2913 0.368714C69.1743 0.251772 69.0354 0.15902 68.8826 0.095755C68.7298 0.0324904 68.566 -4.74644e-05 68.4006 5.19674e-08H37.1651C36.9997 -4.74644e-05 36.8359 0.0324904 36.6831 0.095755C36.5302 0.15902 36.3914 0.251772 36.2744 0.368714C36.1574 0.485655 36.0646 0.624496 36.0013 0.777305C35.938 0.930115 35.9054 1.0939 35.9054 1.2593V2.6521C35.9071 4.19748 36.5218 5.67909 37.6145 6.77187C38.7072 7.86466 40.1888 8.47939 41.7342 8.48121H48.8248V42.202C48.8264 42.6395 48.7383 43.0727 48.5657 43.4748C48.3931 43.8769 48.1399 44.2392 47.8216 44.5394L47.734 44.6204C46.7503 45.5134 45.5739 46.1674 44.2962 46.5317C43.0186 46.8961 41.6742 46.9609 40.3674 46.7212C39.1319 46.5046 37.9535 46.038 36.9046 45.35C35.8557 44.662 34.9583 43.7671 34.2673 42.7201C37.2343 40.8751 39.4362 38.0218 40.4689 34.6841C41.5015 31.3464 41.2956 27.7482 39.889 24.55C38.4823 21.3519 35.9693 18.7684 32.8113 17.2739C29.6533 15.7793 26.0621 15.474 22.6971 16.414C19.3321 17.354 16.4191 19.4762 14.4927 22.391C12.5664 25.3058 11.7561 28.8176 12.2105 32.2817C12.6649 35.7459 14.3535 38.9299 16.9665 41.2493C19.5794 43.5686 22.9412 44.8677 26.4348 44.908H26.4341ZM38.4247 2.65391V2.52078H67.1409V2.65391C67.14 3.53139 66.7911 4.37269 66.1707 4.9932C65.5502 5.61371 64.709 5.96273 63.8315 5.96369H41.7342C40.8564 5.96273 40.0148 5.61346 39.3943 4.99256C38.7739 4.37166 38.4251 3.52989 38.4247 2.6521V2.65391ZM26.6066 18.3907C28.9802 18.3906 31.3006 19.0944 33.2742 20.4131C35.2479 21.7317 36.7861 23.606 37.6945 25.799C38.6029 27.9919 38.8406 30.4049 38.3776 32.7329C37.9146 35.061 36.7716 37.1994 35.0932 38.8778C33.4148 40.5563 31.2764 41.6993 28.9484 42.1624C26.6204 42.6255 24.2074 42.3879 22.0144 41.4795C19.8215 40.5712 17.9471 39.033 16.6284 37.0594C15.3097 35.0858 14.6058 32.7655 14.6058 30.3919C14.6094 27.2101 15.875 24.1597 18.1248 21.9099C20.3745 19.66 23.4249 18.3944 26.6066 18.3907Z" fill="white"/>
<path d="M11.4277 80.7391C11.9741 82.781 12.734 84.7597 13.6949 86.6424C17.378 93.7623 23.3627 97.7016 31.0534 98.1002V102.658C30.8645 102.805 30.7027 102.984 30.5752 103.186L27.7241 107.728C27.2984 108.404 27.0661 109.183 27.0523 109.982C27.0385 110.781 27.2438 111.568 27.646 112.258L30.5383 117.242C30.7188 117.552 30.9777 117.81 31.2892 117.989C31.6007 118.169 31.9537 118.263 32.3131 118.263C32.6724 118.263 33.0255 118.169 33.337 117.989C33.6484 117.81 33.9074 117.552 34.0879 117.242L36.9798 112.259C37.382 111.569 37.5873 110.781 37.5735 109.983C37.5597 109.184 37.3274 108.404 36.9017 107.728L34.051 103.186C33.9233 102.984 33.7613 102.806 33.5724 102.659V98.1162C39.5777 97.915 44.7509 96.2035 48.9662 93.0211C50.4169 91.9236 51.7022 90.6233 52.7828 89.1599C53.8634 90.6233 55.1487 91.9236 56.5994 93.0211C61.0936 96.4151 66.68 98.1364 73.2044 98.1364C73.7558 98.1364 74.298 98.1176 74.8324 98.0829V102.657C74.6435 102.803 74.4817 102.982 74.3541 103.184L71.503 107.726C71.0774 108.402 70.8451 109.182 70.8314 109.981C70.8177 110.779 71.0231 111.567 71.4253 112.257L74.3194 117.24C74.4999 117.551 74.7588 117.809 75.0702 117.988C75.3816 118.167 75.7347 118.262 76.094 118.262C76.4534 118.262 76.8064 118.167 77.1178 117.988C77.4293 117.809 77.6882 117.551 77.8687 117.24L80.7628 112.258C81.1649 111.567 81.3702 110.78 81.3564 109.981C81.3427 109.182 81.1103 108.402 80.6846 107.726L77.8336 103.185C77.706 102.983 77.5442 102.804 77.3553 102.657V97.7786C83.6862 96.6517 88.659 92.8608 91.8758 86.6424C92.8392 84.7595 93.6011 82.7802 94.1488 80.7373C97.7949 79.7142 100.946 77.4033 103.018 74.2334C105.09 71.0635 105.941 67.2498 105.415 63.4996C104.889 59.7495 103.02 56.3175 100.156 53.8403C97.2916 51.3631 93.626 50.009 89.8392 50.0289C86.0523 50.0489 82.4012 51.4417 79.5632 53.949C76.7252 56.4562 74.8929 59.9077 74.4062 63.6632C73.9196 67.4187 74.8115 71.2233 76.9167 74.3712C79.0218 77.519 82.1972 79.7965 85.8539 80.7811C84.1536 85.3198 80.6083 90.2188 73.208 90.2188C68.4458 90.2188 64.4653 89.0359 61.3783 86.7032C59.9243 85.5743 58.7502 84.1254 57.9471 82.469C57.144 80.8126 56.7336 78.9934 56.7478 77.1526V53.2761C59.8253 54.6779 63.2565 55.1103 66.5856 54.5159C69.1765 54.0632 71.6281 53.019 73.7498 51.4645C75.8715 49.91 77.606 47.8872 78.8186 45.5532C78.9304 45.3405 79.0321 45.1227 79.1377 44.9067C82.8706 44.8624 86.4429 43.3823 89.1132 40.7735C91.7835 38.1648 93.3465 34.6279 93.4778 30.8971C93.609 27.1663 92.2984 23.5283 89.8181 20.7383C87.3378 17.9483 83.8782 16.2208 80.1577 15.9143C76.4372 15.6078 72.7416 16.7459 69.8382 19.0924C66.9347 21.4388 65.0464 24.8133 64.5654 28.5153C64.0843 32.2172 65.0474 35.9623 67.2548 38.9728C69.4622 41.9834 72.7442 44.0282 76.4194 44.6828C75.3673 46.5999 73.8978 48.2561 72.1194 49.5288C70.341 50.8015 68.2994 51.6582 66.1453 52.0356C62.6919 52.6552 59.1315 51.9642 56.1606 50.0977C55.9701 49.9772 55.7507 49.91 55.5254 49.9032C55.3001 49.8964 55.0771 49.9502 54.8796 50.059C54.6822 50.1677 54.5175 50.3275 54.4029 50.5216C54.2882 50.7156 54.2277 50.9369 54.2277 51.1623V77.1519C54.2143 79.382 54.7154 81.5851 55.692 83.5901C56.6686 85.595 58.0944 87.3478 59.8586 88.7121C63.3945 91.3826 67.8858 92.7367 73.2077 92.7367C80.3865 92.7367 85.7421 88.6632 88.3656 81.2424C88.8783 81.2934 89.3977 81.3205 89.9234 81.3205C90.4114 81.3205 90.8936 81.2948 91.3704 81.251C90.9143 82.7086 90.3345 84.1247 89.6376 85.4837C86.2081 92.1123 80.5269 95.616 73.207 95.616C67.2444 95.616 62.1688 94.0662 58.1214 91.0096C56.4098 89.7099 54.9651 88.0922 53.8663 86.2452C53.7544 86.0587 53.5961 85.9044 53.4069 85.7972C53.2177 85.6901 53.0039 85.6338 52.7864 85.6338C52.569 85.6338 52.3552 85.6901 52.166 85.7972C51.9767 85.9044 51.8184 86.0587 51.7066 86.2452C50.6078 88.0922 49.163 89.7099 47.4515 91.0096C43.4044 94.0662 38.3289 95.616 32.3659 95.616C25.046 95.616 19.3648 92.1123 15.9353 85.4837C15.2374 84.1246 14.6565 82.7086 14.1988 81.251C14.6763 81.2952 15.1593 81.3209 15.6484 81.3209C19.6173 81.3241 23.4393 79.8204 26.342 77.1136C29.2447 74.4069 31.0114 70.699 31.2851 66.7396C31.5588 62.7802 30.3189 58.8645 27.8163 55.7842C25.3136 52.7038 21.7347 50.6885 17.8032 50.1457C13.8716 49.6029 9.88056 50.573 6.63684 52.86C3.39312 55.147 1.13867 58.5802 0.32922 62.4656C-0.480229 66.3511 0.215701 70.3989 2.27633 73.791C4.33696 77.183 7.60858 79.6661 11.4299 80.7384L11.4277 80.7391ZM78.5455 109.065C78.7266 109.353 78.8253 109.685 78.8311 110.024C78.8369 110.364 78.7495 110.699 78.5784 110.993L76.0906 115.279L73.6027 110.992C73.4316 110.699 73.3443 110.364 73.3501 110.024C73.3559 109.685 73.4546 109.353 73.6357 109.066L76.0906 105.154L78.5455 109.065ZM66.9575 30.3916C66.9575 28.018 67.6613 25.6977 68.98 23.7242C70.2987 21.7506 72.173 20.2124 74.3659 19.304C76.5588 18.3957 78.9718 18.158 81.2998 18.621C83.6278 19.0841 85.7662 20.227 87.4446 21.9054C89.1231 23.5837 90.2661 25.7221 90.7292 28.0501C91.1923 30.3781 90.9547 32.7911 90.0464 34.984C89.1381 37.177 87.6 39.0513 85.6264 40.3701C83.6529 41.6888 81.3326 42.3927 78.959 42.3928C75.7772 42.3893 72.7266 41.1237 70.4767 38.8739C68.2267 36.624 66.9611 33.5735 66.9575 30.3916ZM76.7902 65.6731C76.7902 63.0764 77.5602 60.538 79.0029 58.3789C80.4455 56.2198 82.496 54.537 84.8951 53.5433C87.2941 52.5496 89.934 52.2896 92.4808 52.7962C95.0276 53.3028 97.367 54.5532 99.2031 56.3894C101.039 58.2255 102.29 60.5649 102.796 63.1117C103.303 65.6585 103.043 68.2984 102.049 70.6974C101.055 73.0964 99.3727 75.1469 97.2136 76.5896C95.0545 78.0322 92.5161 78.8023 89.9194 78.8023C86.4385 78.7983 83.1014 77.4138 80.64 74.9525C78.1787 72.4911 76.7942 69.154 76.7902 65.6731ZM34.7669 109.065C34.9479 109.353 35.0467 109.684 35.0526 110.024C35.0585 110.364 34.9712 110.699 34.8002 110.992L32.3124 115.279L29.8241 110.992C29.6532 110.699 29.5659 110.364 29.5718 110.024C29.5776 109.684 29.6764 109.353 29.8574 109.065L32.3124 105.154L34.7669 109.065ZM15.6462 52.5443C18.2429 52.5443 20.7813 53.3143 22.9404 54.757C25.0995 56.1996 26.7823 58.2502 27.776 60.6492C28.7697 63.0483 29.0297 65.6881 28.5231 68.235C28.0165 70.7818 26.766 73.1212 24.9298 74.9573C23.0936 76.7934 20.7542 78.0438 18.2074 78.5504C15.6605 79.0569 13.0207 78.7969 10.6217 77.8031C8.22262 76.8093 6.17215 75.1265 4.72954 72.9674C3.28693 70.8082 2.51698 68.2698 2.51705 65.6731C2.52108 62.1923 3.90562 58.8552 6.36696 56.3939C8.82829 53.9327 12.1654 52.5482 15.6462 52.5443ZM25.9449 22.8894C25.9764 22.8894 26.0079 22.8894 26.0394 22.8857C26.2281 22.872 26.4173 22.8651 26.6066 22.8651C26.9407 22.8651 27.2611 22.7324 27.4973 22.4962C27.7336 22.2599 27.8663 21.9395 27.8663 21.6055C27.8663 21.2714 27.7336 20.951 27.4973 20.7147C27.2611 20.4785 26.9407 20.3458 26.6066 20.3458C26.3563 20.3458 26.1023 20.3552 25.8534 20.3736C25.5288 20.3983 25.2264 20.5476 25.0095 20.7903C24.7926 21.033 24.6781 21.3502 24.6899 21.6755C24.7017 22.0008 24.839 22.3088 25.073 22.5351C25.307 22.7614 25.6194 22.8884 25.9449 22.8894ZM19.431 35.6159C19.5771 35.5384 19.7066 35.4328 19.8119 35.3052C19.9172 35.1777 19.9964 35.0306 20.0449 34.8724C20.0934 34.7143 20.1102 34.5481 20.0944 34.3834C20.0787 34.2187 20.0306 34.0588 19.953 33.9127C19.1955 32.4794 18.9206 30.84 19.1691 29.238C19.4176 27.636 20.1763 26.1569 21.3324 25.0205C21.4516 24.9049 21.5468 24.7668 21.6124 24.6142C21.6781 24.4617 21.7129 24.2976 21.7149 24.1316C21.7169 23.9655 21.686 23.8007 21.6241 23.6466C21.5621 23.4925 21.4703 23.3522 21.354 23.2337C21.2376 23.1152 21.0989 23.0209 20.9459 22.9562C20.793 22.8915 20.6287 22.8577 20.4627 22.8568C20.2966 22.8558 20.1319 22.8877 19.9782 22.9506C19.8245 23.0135 19.6848 23.1061 19.567 23.2233C18.0231 24.7403 17.0101 26.7153 16.6787 28.8543C16.3473 30.9933 16.7153 33.1822 17.7278 35.0953C17.8054 35.2413 17.9111 35.3707 18.0387 35.4759C18.1663 35.5811 18.3134 35.6601 18.4715 35.7085C18.6297 35.7568 18.7959 35.7735 18.9605 35.7576C19.1251 35.7418 19.285 35.6936 19.431 35.6159Z" fill="white"/>
<path d="M14.9282 57.426C14.9593 57.426 14.9911 57.426 15.0229 57.4224C15.2304 57.4072 15.4383 57.3996 15.6463 57.3996C15.9803 57.3996 16.3007 57.2669 16.537 57.0306C16.7732 56.7944 16.9059 56.474 16.9059 56.1399C16.9059 55.8058 16.7732 55.4854 16.537 55.2492C16.3007 55.013 15.9803 54.8802 15.6463 54.8802C15.3764 54.8802 15.1036 54.8904 14.8359 54.9103C14.5113 54.9349 14.2088 55.0843 13.9919 55.3271C13.775 55.5698 13.6605 55.8871 13.6724 56.2125C13.6844 56.5378 13.8218 56.8459 14.0559 57.0721C14.29 57.2984 14.6026 57.4252 14.9282 57.426ZM7.80971 71.2501C7.95584 71.1726 8.08526 71.0671 8.1906 70.9396C8.29594 70.812 8.37513 70.665 8.42364 70.5069C8.47215 70.3488 8.48903 70.1826 8.47333 70.018C8.45762 69.8533 8.40963 69.6934 8.3321 69.5473C7.49908 67.9717 7.19668 66.1694 7.46983 64.4082C7.74299 62.647 8.57712 61.0209 9.84826 59.7717C9.96634 59.6558 10.0604 59.5178 10.1252 59.3655C10.1899 59.2132 10.224 59.0497 10.2256 58.8843C10.2271 58.7188 10.1961 58.5547 10.1342 58.4012C10.0723 58.2478 9.98079 58.1081 9.8649 57.99C9.749 57.8719 9.61098 57.7778 9.45872 57.7131C9.30646 57.6483 9.14294 57.6142 8.9775 57.6127C8.81205 57.6111 8.64792 57.6422 8.49448 57.7041C8.34104 57.7659 8.20129 57.8574 8.08321 57.9733C6.42456 59.603 5.33623 61.7245 4.98009 64.0224C4.62395 66.3203 5.01901 68.6717 6.10652 70.727C6.18401 70.8732 6.28955 71.0026 6.41711 71.108C6.54467 71.2133 6.69174 71.2925 6.84992 71.341C7.0081 71.3895 7.17428 71.4063 7.33897 71.3905C7.50366 71.3748 7.66362 71.3267 7.80971 71.249V71.2501ZM79.5773 22.8655C79.9114 22.8655 80.2318 22.7328 80.468 22.4966C80.7043 22.2603 80.837 21.9399 80.837 21.6059C80.837 21.2718 80.7043 20.9514 80.468 20.7151C80.2318 20.4789 79.9114 20.3462 79.5773 20.3462C79.327 20.3462 79.0734 20.3556 78.8238 20.374C78.4992 20.3987 78.1968 20.548 77.9799 20.7907C77.763 21.0334 77.6484 21.3506 77.6603 21.6759C77.6721 22.0012 77.8094 22.3093 78.0434 22.5355C78.2773 22.7618 78.5898 22.8888 78.9153 22.8898C78.9468 22.8898 78.9782 22.8898 79.0097 22.8861C79.1978 22.8724 79.3888 22.8655 79.5773 22.8655ZM72.5377 23.2251C70.9939 24.742 69.981 26.7166 69.6496 28.8554C69.3182 30.9942 69.6861 33.1828 70.6985 35.0957C70.8565 35.3884 71.1238 35.6068 71.4421 35.7031C71.7604 35.7995 72.1039 35.7661 72.3977 35.6101C72.6915 35.4542 72.9116 35.1884 73.0102 34.8708C73.1087 34.5531 73.0777 34.2094 72.9237 33.9145C72.166 32.4813 71.8909 30.8419 72.1394 29.2399C72.3878 27.6378 73.1466 26.1587 74.3028 25.0224C74.4238 24.9072 74.5207 24.769 74.5878 24.6161C74.6549 24.4631 74.6909 24.2982 74.6937 24.1312C74.6965 23.9642 74.666 23.7982 74.6041 23.6431C74.5422 23.4879 74.45 23.3466 74.3329 23.2274C74.2159 23.1082 74.0763 23.0135 73.9222 22.9488C73.7682 22.8841 73.6029 22.8506 73.4358 22.8504C73.2688 22.8502 73.1033 22.8832 72.9491 22.9475C72.795 23.0119 72.6551 23.1062 72.5377 23.2251ZM90.9451 54.8802C90.6755 54.8802 90.4024 54.8904 90.1351 54.9103C89.8105 54.9349 89.508 55.0842 89.2911 55.327C89.0742 55.5697 88.9597 55.887 88.9716 56.2123C88.9835 56.5376 89.1208 56.8457 89.3549 57.072C89.5889 57.2982 89.9014 57.4251 90.227 57.426C90.2584 57.426 90.2899 57.426 90.3221 57.4224C90.5294 57.4072 90.7372 57.3996 90.9451 57.3996C91.2791 57.3996 91.5995 57.2669 91.8358 57.0306C92.072 56.7944 92.2047 56.474 92.2047 56.1399C92.2047 55.8058 92.072 55.4854 91.8358 55.2492C91.5995 55.013 91.2791 54.8802 90.9451 54.8802ZM83.3816 57.9733C81.7232 59.6031 80.6351 61.7246 80.2791 64.0224C79.9231 66.3201 80.3182 68.6714 81.4057 70.7266C81.5623 71.0218 81.8297 71.2426 82.1491 71.3406C82.4685 71.4385 82.8137 71.4056 83.1089 71.249C83.404 71.0924 83.6248 70.825 83.7228 70.5056C83.8208 70.1862 83.7878 69.841 83.6313 69.5458C82.7979 67.9703 82.4954 66.1679 82.7685 64.4066C83.0417 62.6454 83.876 61.0193 85.1474 59.7702C85.3832 59.5355 85.5165 59.2171 85.5183 58.8844C85.5202 58.5518 85.3903 58.2319 85.1572 57.9946C84.924 57.7573 84.6064 57.6219 84.2738 57.6179C83.9411 57.614 83.6204 57.7417 83.3816 57.9733ZM52.7829 93.3539C52.6175 93.3539 52.4537 93.3864 52.3008 93.4497C52.148 93.5129 52.0091 93.6057 51.8922 93.7226C51.7752 93.8396 51.6824 93.9784 51.6191 94.1312C51.5558 94.284 51.5232 94.4478 51.5232 94.6132V97.8546C51.3002 98.0114 51.1107 98.211 50.9657 98.4418L48.1161 102.982C47.6901 103.658 47.4576 104.438 47.4437 105.237C47.4298 106.036 47.6351 106.823 48.0372 107.513L50.9292 112.496C51.108 112.808 51.3664 113.067 51.6782 113.247C51.99 113.426 52.3438 113.52 52.7036 113.518C53.0634 113.52 53.4173 113.427 53.7291 113.247C54.041 113.068 54.2995 112.809 54.4784 112.496L57.3726 107.513C57.7746 106.823 57.9799 106.036 57.966 105.237C57.9522 104.438 57.7198 103.658 57.2941 102.982L54.4434 98.4403C54.3341 98.268 54.2 98.1126 54.0454 97.9794V94.6121C54.0453 94.4466 54.0125 94.2827 53.9489 94.1298C53.8854 93.9769 53.7923 93.8381 53.675 93.7212C53.5578 93.6044 53.4186 93.5118 53.2655 93.4487C53.1124 93.3857 52.9484 93.3535 52.7829 93.3539ZM55.1589 104.323C55.3399 104.611 55.4387 104.942 55.4446 105.282C55.4504 105.622 55.3632 105.956 55.1922 106.25L52.7036 110.537L50.2143 106.249C50.0432 105.955 49.9559 105.62 49.9618 105.28C49.9678 104.941 50.0667 104.609 50.248 104.322L52.7022 100.41L55.1589 104.323Z" fill="white"/>
</g>
</svg>
