<svg width="180" height="93" viewBox="0 0 180 93" fill="none" xmlns="http://www.w3.org/2000/svg">
<path d="M137.356 -2.41199C134.723 21.4113 114.525 39.9411 90 39.9411C65.4746 39.9411 45.2774 21.4113 42.6438 -2.41199H5.29418C2.37023 -2.41199 0 -4.78223 0 -7.70582C0 -10.6294 2.37023 -13 5.29418 -13H174.706C177.63 -13 180 -10.6298 180 -7.70582C180 -4.78188 177.63 -2.41164 174.706 -2.41164L137.356 -2.41199ZM90 29.3527C108.67 29.3527 124.115 15.5472 126.683 -2.41199H53.3166C55.8854 15.5476 71.3303 29.3527 90 29.3527ZM84.7058 61.1175C84.7058 58.1935 87.0761 55.8233 90 55.8233C92.9239 55.8233 95.2942 58.1935 95.2942 61.1175V87.588C95.2942 90.512 92.9239 92.8822 90 92.8822C87.0761 92.8822 84.7058 90.512 84.7058 87.588V61.1175ZM51.0033 49.2498C52.4651 46.7175 55.703 45.8498 58.2353 47.312C60.7672 48.7741 61.6349 52.0116 60.1731 54.5439L46.9378 77.4683C45.476 80.0002 42.2381 80.8679 39.7058 79.4061C37.1739 77.9443 36.3062 74.7064 37.768 72.1745L51.0033 49.2498ZM119.827 54.5439C118.365 52.0116 119.233 48.7741 121.765 47.312C124.297 45.8498 127.535 46.7175 128.997 49.2498L142.232 72.1741C143.694 74.7061 142.826 77.9439 140.294 79.4057C137.762 80.8679 134.524 80.0002 133.062 77.4679L119.827 54.5439ZM146.956 31.2905C144.424 29.8284 143.556 26.5909 145.018 24.0586C146.48 21.5262 149.718 20.6586 152.25 22.1207L175.174 35.356C177.707 36.8182 178.574 40.0557 177.112 42.588C175.65 45.1203 172.413 45.988 169.88 44.5258L146.956 31.2905ZM27.7499 22.1211C30.2818 20.6589 33.5197 21.5266 34.9819 24.0589C36.444 26.5912 35.576 29.8287 33.0441 31.2909L10.1197 44.5262C7.58742 45.9883 4.34988 45.1207 2.88773 42.5884C1.42559 40.0561 2.29324 36.8185 4.82555 35.3564L27.7499 22.1211Z" fill="white"/>
</svg>
