<svg width="995" height="564" viewBox="0 0 995 564" fill="none" xmlns="http://www.w3.org/2000/svg">
<g opacity="0.5">
<path d="M608.4 18.4004C554.8 18.4004 510.8 58.4004 506 112C505.2 116.8 506.8 120.8 510 124C513.2 127.2 517.2 128.8 522 128.8H600.4V421.6H590.8C578.8 421.6 569.2 431.2 569.2 443.2V476.8H551.6C546.8 476.8 543.6 480 543.6 484.8C543.6 489.6 546.8 492.8 551.6 492.8H664.4C669.2 492.8 672.4 489.6 672.4 484.8C672.4 480 669.2 476.8 664.4 476.8H646.8V443.2C646.8 431.2 637.2 421.6 625.2 421.6H615.6V129.6H694C698.8 129.6 702.8 128 706 124.8C709.2 121.6 710.8 116.8 710 112.8C705.2 58.4004 661.2 18.4004 608.4 18.4004ZM630.8 444V477.6H585.2V444C585.2 440.8 587.6 438.4 590.8 438.4H626C628.4 438.4 630.8 440.8 630.8 444ZM522 113.6C526 68.8004 563.6 35.2004 608.4 35.2004C653.2 35.2004 690.8 68.8004 694.8 113.6H522Z" fill="black"/>
<path d="M551.6 397.601V280.801C551.6 260.801 536.4 244.801 516.4 243.201V207.201C516.4 151.201 470.8 105.601 414.8 105.601H366C310 105.601 264.4 151.201 264.4 207.201V243.201C245.2 244.801 229.2 260.801 229.2 280.801V397.601C229.2 418.401 246 435.201 266.8 436.001L260.4 452.801C258 460.001 258 468.801 262 476.001C265.2 483.201 271.6 488.801 278.8 491.201C282 492.001 285.2 492.801 288.4 492.801C300.4 492.801 312.4 484.801 316.4 472.801L329.2 436.001H449.2L462 472.801C466 484.801 478 492.801 490 492.801C493.2 492.801 496.4 492.001 499.6 491.201C514.8 485.601 523.6 468.801 518 452.801L511.6 436.001C534.8 435.201 551.6 418.401 551.6 397.601ZM366 121.601H414.8C462 121.601 500.4 160.001 500.4 207.201V245.601C486 251.201 476.4 264.801 476.4 280.801V299.201H304.4V280.801C304.4 264.801 294 251.201 280.4 245.601V207.201C280.4 160.001 318.8 121.601 366 121.601ZM304.4 316.001H476.4V359.201C476.4 360.801 475.6 361.601 474 361.601H306.8C305.2 361.601 304.4 360.801 304.4 359.201V316.001ZM302 468.001C299.6 475.201 291.6 479.201 284.4 476.801C281.2 475.201 278 472.801 276.4 469.601C274.8 466.401 274.8 462.401 275.6 459.201L283.6 436.801H313.2L302 468.001ZM496.4 476.801C489.2 479.201 481.2 475.201 478.8 468.001L467.6 436.001H497.2L505.2 458.401C507.6 465.601 503.6 473.601 496.4 476.801ZM535.6 397.601C535.6 410.401 525.2 420.801 512.4 420.801H268.4C255.6 420.801 245.2 410.401 245.2 397.601V280.801C245.2 268.801 254.8 259.201 266.8 259.201C278.8 259.201 288.4 268.801 288.4 280.801V358.401C288.4 368.801 296.4 376.801 306.8 376.801H473.2C483.6 376.801 491.6 368.801 491.6 358.401V280.801C491.6 268.801 501.2 259.201 513.2 259.201C525.2 259.201 534.8 268.801 534.8 280.801V397.601H535.6Z" fill="black"/>
<path d="M180.7 312.65C180.7 308.85 177.15 305.8 171.75 304.6C174.7 299.95 175.1 295.25 172.4 292.6C169.7 289.9 165.05 290.3 160.4 293.25C159.2 287.85 156.15 284.3 152.35 284.3C148.55 284.3 145.5 287.85 144.3 293.25C139.65 290.3 134.95 289.95 132.3 292.6C129.6 295.3 130 299.95 132.95 304.6C127.55 305.8 124 308.85 124 312.65C124 316.45 127.55 319.5 132.95 320.7C130 325.35 129.65 330.05 132.3 332.7C133.5 333.9 135.15 334.5 137 334.5C138.4 334.5 139.95 334.15 141.5 333.5C139.8 348.5 140.95 377.7 141.2 383.95H114.9C115.3 381.05 115.9 374.2 114.7 366.3C116.2 366.9 117.65 367.2 119 367.2C120.85 367.2 122.5 366.6 123.7 365.4C126.4 362.7 126 358.05 123.05 353.4C128.45 352.2 132 349.15 132 345.35C132 341.55 128.45 338.5 123.05 337.3C126 332.65 126.4 327.95 123.7 325.3C121 322.6 116.35 323 111.7 325.95C110.5 320.55 107.45 317 103.65 317C99.8498 317 96.7998 320.55 95.5998 325.95C90.9498 323 86.2498 322.65 83.5998 325.3C80.8998 328 81.2998 332.65 84.2498 337.3C78.8498 338.5 75.2998 341.55 75.2998 345.35C75.2998 349.15 78.8498 352.2 84.2498 353.4C81.2998 358.05 80.9498 362.75 83.5998 365.4C84.7998 366.6 86.4498 367.2 88.2998 367.2C90.4998 367.2 93.0498 366.35 95.5998 364.75C96.7998 370.15 99.8498 373.7 103.65 373.7C106.25 373.7 108.5 372 110.05 369.25C110.8 376.25 110.1 382.1 109.85 383.95H98.7998C94.2998 383.95 90.5998 387.65 90.5998 392.15V394.9C90.5998 398 92.3498 400.7 94.8998 402.1C84.9998 410.95 79.2498 423.5 79.2498 436.6C79.2498 462.5 101.1 483.6 128 483.6C154.9 483.6 176.75 462.5 176.75 436.6C176.75 423.45 171 410.9 161.1 402.1C163.65 400.7 165.4 398 165.4 394.9V392.15C165.4 387.65 161.7 383.95 157.2 383.95H146.25C146 378.7 144.95 352.05 146.2 336.9C147.75 339.45 149.9 340.95 152.35 340.95C156.15 340.95 159.2 337.4 160.4 332C162.95 333.6 165.5 334.45 167.7 334.45C169.55 334.45 171.2 333.85 172.4 332.65C175.1 329.95 174.7 325.3 171.75 320.65C177.15 319.5 180.7 316.45 180.7 312.65ZM100.05 344.9C100.05 343.85 100.5 342.85 101.35 342.15C102 341.6 102.8 341.3 103.65 341.3C104.75 341.3 105.5 341.75 105.95 342.15C106.75 342.85 107.25 343.85 107.25 344.9C107.25 346.9 105.65 348.5 103.65 348.5C101.65 348.5 100.05 346.85 100.05 344.9ZM120.2 361.95C119.4 362.75 116.15 362.2 112.7 359.4C112.55 359.3 112.4 359.15 112.3 359.05C112.3 358.1 112.2 357.15 112.1 356.25C111.95 355.15 111.7 354.1 111.45 353.15C113.25 353.7 115.3 354 117.35 354.05C120.55 357.8 120.95 361.2 120.2 361.95ZM127.05 345.45C127.05 346.6 123.95 348.9 118.35 349.05C118.3 349.05 118.3 349.05 118.25 349.05C118.1 349.05 118 349.05 117.85 349.05C115.6 349.05 113.4 348.65 111.7 348C112.05 347.05 112.3 346 112.3 344.9C112.3 344.2 112.2 343.5 112.05 342.8C113.7 342.2 115.8 341.85 117.9 341.85H118.3H118.4C123.95 341.95 127.05 344.25 127.05 345.45ZM120.2 328.9C120.95 329.65 120.55 333.05 117.25 336.85C115.15 336.9 113.15 337.2 111.35 337.75C111.9 335.95 112.2 333.9 112.25 331.85C116.05 328.55 119.45 328.15 120.2 328.9ZM103.65 322.05C104.8 322.05 107.1 325.15 107.25 330.75V330.85V331.25C107.25 333.25 106.95 335.15 106.4 336.75C105.5 336.45 104.6 336.3 103.65 336.3C102.7 336.3 101.75 336.45 100.9 336.75C100.35 335.15 100.05 333.25 100.05 331.25C100.05 331.1 100.05 331 100.05 330.85C100.05 330.8 100.05 330.8 100.05 330.75C100.2 325.1 102.5 322.05 103.65 322.05ZM87.1498 328.9C87.8998 328.15 91.2998 328.55 95.0998 331.8C95.1498 333.9 95.4498 335.9 95.9998 337.7C94.1998 337.15 92.1498 336.85 90.0998 336.8C86.7998 333.05 86.3498 329.65 87.1498 328.9ZM80.2998 345.45C80.2998 344.3 83.3998 342 88.9998 341.85H89.0998H89.4998C91.5998 341.85 93.6998 342.2 95.3498 342.8C95.1998 343.5 95.0998 344.2 95.0998 344.9C95.0998 346 95.2998 347 95.6998 348C93.9998 348.7 91.7998 349.05 89.5498 349.05C89.3998 349.05 89.2998 349.05 89.1498 349.05C89.0998 349.05 89.0998 349.05 89.0498 349.05C83.3498 348.9 80.2998 346.6 80.2998 345.45ZM87.1498 361.95C86.3998 361.2 86.7998 357.8 90.0498 354C92.1498 353.95 94.1498 353.65 95.9498 353.1C95.3998 354.9 95.0998 356.95 95.0498 359C91.2998 362.3 87.8998 362.7 87.1498 361.95ZM103.65 368.8C102.5 368.8 100.2 365.7 100.05 360.1C100.05 360.05 100.05 360.05 100.05 360C100.05 359.85 100.05 359.75 100.05 359.6C100.05 357.2 100.5 354.9 101.25 353.15C102 353.35 102.8 353.5 103.65 353.5C104.5 353.5 105.3 353.35 106.05 353.15C106.5 354.25 106.85 355.55 107.05 356.95C107.15 357.8 107.25 358.7 107.25 359.6V360V360.1C107.1 365.75 104.8 368.8 103.65 368.8ZM171.75 436.7C171.75 459.85 152.1 478.7 128 478.7C103.9 478.7 84.2498 459.85 84.2498 436.7C84.2498 423.55 90.7498 411.1 101.65 403.15H154.35C165.25 411.1 171.75 423.55 171.75 436.7ZM160.4 392.2V394.95C160.4 396.7 158.95 398.15 157.2 398.15H155.2H100.8H98.7998C97.0498 398.15 95.5998 396.7 95.5998 394.95V392.2C95.5998 390.45 97.0498 389 98.7998 389H157.15C158.95 389 160.4 390.45 160.4 392.2ZM168.85 296.15C169.6 296.9 169.2 300.3 165.9 304.1C163.8 304.15 161.8 304.45 160 305C160.55 303.2 160.85 301.15 160.9 299.1C164.7 295.8 168.1 295.4 168.85 296.15ZM148.75 312.15C148.75 311.1 149.2 310.1 150.05 309.4C150.5 309 151.3 308.55 152.35 308.55C153.2 308.55 154 308.85 154.65 309.4C155.45 310.1 155.95 311.1 155.95 312.15C155.95 314.15 154.35 315.75 152.35 315.75C150.35 315.75 148.75 314.1 148.75 312.15ZM152.35 289.3C153.5 289.3 155.8 292.4 155.95 298V298.1V298.5C155.95 300.45 155.65 302.4 155.1 304C154.2 303.7 153.3 303.55 152.35 303.55C151.4 303.55 150.45 303.7 149.6 304C149.05 302.4 148.75 300.5 148.75 298.5C148.75 298.35 148.75 298.25 148.75 298.1C148.75 298.05 148.75 298.05 148.75 298C148.9 292.35 151.2 289.3 152.35 289.3ZM135.8 296.15C136.55 295.4 139.95 295.8 143.75 299.05C143.8 301.15 144.1 303.15 144.65 304.95C142.85 304.4 140.8 304.1 138.75 304.05C135.45 300.3 135.05 296.9 135.8 296.15ZM128.95 312.65C128.95 311.5 132.05 309.2 137.65 309.05H137.75H138.15C140.25 309.05 142.35 309.4 144 310C143.85 310.7 143.75 311.4 143.75 312.1C143.75 313.2 143.95 314.2 144.35 315.2C142.65 315.9 140.45 316.25 138.2 316.25C138.05 316.25 137.95 316.25 137.8 316.25C137.75 316.25 137.75 316.25 137.7 316.25C132.05 316.15 128.95 313.8 128.95 312.65ZM135.8 329.2C135.05 328.45 135.45 325.05 138.7 321.25C140.8 321.2 142.8 320.9 144.6 320.35C144.3 321.35 144.1 322.4 143.95 323.45C143.8 324.35 143.75 325.3 143.75 326.25C143.6 326.35 143.45 326.5 143.3 326.6C139.85 329.45 136.6 330 135.8 329.2ZM152.35 336.05C151.2 336.05 148.9 332.95 148.75 327.35C148.75 327.3 148.75 327.3 148.75 327.25C148.75 327.1 148.75 327 148.75 326.85C148.75 325.95 148.8 325.05 148.95 324.2C149.15 322.8 149.5 321.5 149.95 320.4C150.7 320.6 151.5 320.75 152.35 320.75C153.2 320.75 154 320.6 154.75 320.4C155.5 322.15 155.95 324.45 155.95 326.85V327.25V327.35C155.8 332.95 153.5 336.05 152.35 336.05ZM168.85 329.2C168.1 329.95 164.7 329.55 160.9 326.3C160.85 324.2 160.55 322.2 160 320.4C161.8 320.95 163.85 321.25 165.9 321.3C169.2 325.05 169.65 328.45 168.85 329.2ZM167 316.25C166.95 316.25 166.95 316.25 166.9 316.25C166.8 316.25 166.7 316.25 166.6 316.25C164.3 316.25 162.1 315.85 160.35 315.15C160.7 314.2 160.95 313.15 160.95 312.1C160.95 311.4 160.85 310.7 160.7 310C162.35 309.4 164.45 309.05 166.55 309.05H166.95H167.05C172.7 309.2 175.75 311.5 175.75 312.65C175.7 313.8 172.65 316.15 167 316.25Z" fill="black"/>
<path d="M963.254 257.244H648.746C639.739 257.244 632.356 264.627 632.356 273.634C632.356 282.641 639.739 290.024 648.746 290.024H691.788C691.64 290.984 691.567 292.017 691.567 293.051C691.567 297.185 692.748 301.098 694.815 304.051C697.178 307.447 700.647 309.441 704.339 309.441H745.978C772.335 347.979 788.577 392.866 793.08 439.378L795.886 468.171H747.602C740.81 468.171 735.273 473.708 735.273 480.5C735.273 487.293 740.81 492.83 747.602 492.83H864.546C871.338 492.83 876.875 487.293 876.875 480.5C876.875 473.708 871.338 468.171 864.546 468.171H816.262L819.068 439.378C823.571 392.866 839.813 348.053 866.17 309.441H907.809C914.971 309.441 920.581 302.279 920.581 293.051C920.581 292.017 920.508 291.057 920.36 290.024H963.254C972.261 290.024 979.644 282.641 979.644 273.634C979.644 264.627 972.261 257.244 963.254 257.244ZM868.237 480.427C868.237 482.494 866.539 484.192 864.472 484.192H747.528C745.461 484.192 743.763 482.494 743.763 480.427C743.763 478.359 745.461 476.661 747.528 476.661H800.463H811.463H864.398C866.539 476.661 868.237 478.359 868.237 480.427ZM810.504 438.492L807.624 468.097H804.302L801.423 438.492C796.993 392.497 781.342 348.053 756.092 309.441H855.76C830.585 348.053 814.933 392.497 810.504 438.492ZM911.944 293.051C911.944 297.48 909.655 300.95 907.662 300.95H863.808H748.193H704.339C703.158 300.95 702.198 299.769 701.829 299.179C700.721 297.628 700.131 295.413 700.131 293.051C700.131 292.017 700.278 290.984 700.5 290.024H911.648C911.796 290.984 911.944 292.017 911.944 293.051ZM963.254 281.534H914.601C914.528 281.534 914.454 281.534 914.38 281.534H697.621C697.547 281.534 697.473 281.534 697.399 281.534H648.746C644.39 281.534 640.847 277.99 640.847 273.634C640.847 269.278 644.39 265.808 648.746 265.808H963.254C967.61 265.808 971.154 269.352 971.154 273.634C971.08 277.99 967.61 281.534 963.254 281.534Z" fill="black"/>
</g>
</svg>
