<svg width="121" height="95" viewBox="0 0 121 95" fill="none" xmlns="http://www.w3.org/2000/svg">
<path d="M61.3675 86.2807C61.487 86.616 61.5805 86.9719 61.6447 87.3442C61.7072 87.7062 61.7399 88.0708 61.7399 88.4334C61.7399 90.2033 61.0222 91.8061 59.8627 92.9656C58.7032 94.1251 57.1005 94.8427 55.3305 94.8427C53.5608 94.8427 51.9581 94.1251 50.7986 92.9656V92.9586C49.6391 91.7985 48.9214 90.1983 48.9214 88.4334C48.9214 88.0713 48.9544 87.7065 49.0163 87.3439C49.0805 86.9713 49.174 86.6154 49.2935 86.2807L49.7142 85.1036H60.9474L61.3675 86.2807ZM57.3561 90.459C57.8268 89.9884 58.1346 89.3539 58.1868 88.6486H52.4742C52.5264 89.3562 52.8329 89.9918 53.3018 90.4624L53.3051 90.459C53.8232 90.9771 54.5397 91.2978 55.3305 91.2978C56.1216 91.2978 56.8381 90.9771 57.3561 90.459ZM48.5385 61.1204H62.1228C62.8762 61.1204 63.5603 61.4271 64.055 61.9217C64.5496 62.4164 64.8563 63.1005 64.8563 63.8539V71.5648L62.5368 70.8089C61.389 70.4352 60.2083 70.1488 59.0072 69.9604C57.8429 69.7778 56.6142 69.6821 55.3305 69.6821C54.0468 69.6821 52.8184 69.7778 51.6541 69.9604C50.4527 70.1491 49.272 70.4352 48.1242 70.8089L45.8047 71.5648V63.8539C45.8047 63.1005 46.1114 62.4164 46.6061 61.9217H46.613C47.1082 61.4274 47.7898 61.1204 48.5385 61.1204ZM61.3114 64.6653H49.3496V66.8073C49.9269 66.6773 50.5153 66.5648 51.1143 66.4707C52.5096 66.2519 53.9201 66.1371 55.3305 66.1371C56.7409 66.1371 58.1517 66.2519 59.547 66.4707C60.146 66.5648 60.7344 66.677 61.3114 66.807V64.6653Z" fill="white"/>
<path d="M53.5575 62.8928V17.7407H57.1025V62.8928H53.5575ZM55.33 88.6483H31.5898V86.8758C31.5898 81.1029 34.2843 75.8893 38.6404 72.1286C42.9278 68.4268 48.8305 66.1371 55.33 66.1371C61.8298 66.1371 67.7325 68.4268 72.0199 72.1286C76.376 75.8893 79.0704 81.1029 79.0704 86.8758V88.6483H55.33ZM35.2414 85.1034H75.4192C74.9371 81.1068 72.8445 77.5094 69.7076 74.801C66.0444 71.6382 60.9623 69.6821 55.33 69.6821C49.698 69.6821 44.6157 71.6385 40.9527 74.801C37.8158 77.5094 35.7232 81.1068 35.2414 85.1034Z" fill="white"/>
<path d="M61.3675 86.2807C61.487 86.616 61.5805 86.9719 61.6447 87.3442C61.7072 87.7062 61.7399 88.0708 61.7399 88.4334C61.7399 90.195 61.0225 91.7952 59.8624 92.9583L59.8555 92.9653C58.6923 94.1254 57.0921 94.8427 55.3305 94.8427C53.5673 94.8427 51.9656 94.124 50.8022 92.9617L50.7986 92.9653C49.6391 91.8058 48.9214 90.203 48.9214 88.4334C48.9214 88.0713 48.9544 87.7065 49.0163 87.3439C49.0805 86.9713 49.174 86.6154 49.2935 86.2807L49.7142 85.1036H60.9474L61.3675 86.2807ZM57.3628 90.4587C57.8301 89.9917 58.1355 89.3573 58.1871 88.6486H52.4745C52.5267 89.3537 52.8345 89.9881 53.3051 90.4587V90.4657C53.8187 90.9796 54.535 91.2978 55.3305 91.2978C56.1257 91.2978 56.842 90.9799 57.3559 90.4657L57.3628 90.4587ZM48.5385 61.1204H62.1228C62.8762 61.1204 63.5603 61.4271 64.055 61.9217C64.5496 62.4164 64.8563 63.1005 64.8563 63.8539V71.5648L62.5368 70.8089C61.389 70.4352 60.2083 70.1488 59.0072 69.9604C57.8429 69.7778 56.6142 69.6821 55.3305 69.6821C54.0468 69.6821 52.8184 69.7778 51.6541 69.9604C50.4527 70.1491 49.272 70.4352 48.1242 70.8089L45.8047 71.5648V63.8539C45.8047 63.1005 46.1114 62.4164 46.6061 61.9217H46.613C47.1082 61.4274 47.7898 61.1204 48.5385 61.1204ZM61.3114 64.6653H49.3496V66.8073C49.9269 66.6773 50.5153 66.5648 51.1143 66.4707C52.5096 66.2519 53.9201 66.1371 55.3305 66.1371C56.7409 66.1371 58.1517 66.2519 59.547 66.4707C60.146 66.5648 60.7344 66.677 61.3114 66.807V64.6653Z" fill="white"/>
<path d="M57.1038 62.8928C57.1038 63.8717 56.3102 64.6653 55.3313 64.6653C54.3524 64.6653 53.5589 63.8717 53.5589 62.8928V1.92975C53.5589 0.95085 54.3524 0.157288 55.3313 0.157288C56.3102 0.157288 57.1038 0.95085 57.1038 1.92975V62.8928ZM55.3313 88.6483H31.5912V86.8758C31.5912 81.1029 34.2856 75.8893 38.6417 72.1286C42.9291 68.4268 48.8318 66.1371 55.3313 66.1371C61.8311 66.1371 67.7338 68.4268 72.0213 72.1286C76.3773 75.8893 79.0718 81.1029 79.0718 86.8758V88.6483H55.3313ZM35.2427 85.1034H75.4205C74.9384 81.1068 72.8458 77.5094 69.709 74.801C66.0457 71.6382 60.9636 69.6821 55.3313 69.6821C49.6993 69.6821 44.617 71.6385 40.954 74.801C37.8171 77.5094 35.7245 81.1068 35.2427 85.1034ZM29.7777 50.6304C29.8971 50.9654 29.9906 51.3213 30.0548 51.6939C30.1174 52.0559 30.15 52.4205 30.15 52.7831C30.15 54.5444 29.4327 56.1449 28.2726 57.308L28.2656 57.315C27.1025 58.4751 25.502 59.1924 23.7407 59.1924C21.9771 59.1924 20.3758 58.4737 19.2124 57.3114L19.2087 57.315C18.0492 56.1555 17.3316 54.5527 17.3316 52.7831C17.3316 52.4205 17.3643 52.0559 17.4268 51.6939C17.491 51.3213 17.5845 50.9654 17.704 50.6304L18.124 49.4533H29.3578L29.7777 50.6304ZM25.773 54.8084C26.24 54.3417 26.5453 53.7073 26.5973 52.9983H20.8846C20.9368 53.7034 21.2447 54.3378 21.7153 54.8084V54.8154C22.2292 55.3296 22.9454 55.6475 23.7407 55.6475C24.5362 55.6475 25.2524 55.3293 25.766 54.8154L25.773 54.8084ZM16.9486 25.4701H30.533C31.2863 25.4701 31.9705 25.7768 32.4651 26.2714C32.9597 26.7661 33.2665 27.4502 33.2665 28.2036V35.9145L30.9469 35.1586C29.7992 34.7849 28.6184 34.4985 27.4173 34.3101C26.2531 34.1275 25.0244 34.0318 23.7407 34.0318C22.457 34.0318 21.2285 34.1275 20.0643 34.3101C18.8629 34.4988 17.6822 34.7849 16.5344 35.1586L14.2148 35.9145V28.2036C14.2148 27.4502 14.5216 26.7661 15.0162 26.2714H15.0232C15.5184 25.7771 16.2 25.4701 16.9486 25.4701ZM29.7216 29.015H17.7598V31.157C18.337 31.027 18.9254 30.9145 19.5244 30.8204C20.9198 30.6016 22.3302 30.4868 23.7407 30.4868C25.1511 30.4868 26.5618 30.6016 27.9572 30.8204C28.5562 30.9145 29.1446 31.0267 29.7216 31.1567V29.015Z" fill="white"/>
<path d="M25.5126 27.2425C25.5126 28.2214 24.7191 29.015 23.7402 29.015C22.7613 29.015 21.9677 28.2214 21.9677 27.2425V2.50281C21.9677 1.52391 22.7613 0.730347 23.7402 0.730347C24.7191 0.730347 25.5126 1.52391 25.5126 2.50281V27.2425ZM23.7402 52.998H0V51.2255C0 45.4523 2.69471 40.239 7.05051 36.4783C11.3379 32.7765 17.2407 30.4868 23.7402 30.4868C30.24 30.4868 36.1427 32.7765 40.4301 36.4783C44.7859 40.239 47.4806 45.4523 47.4806 51.2255V52.998H23.7402ZM3.65128 49.4531H43.829C43.3473 45.4565 41.2546 41.8591 38.1178 39.1507C34.4545 35.9879 29.3724 34.0318 23.7402 34.0318C18.1082 34.0318 13.0258 35.9882 9.36281 39.1507C6.22596 41.8591 4.13334 45.4565 3.65128 49.4531ZM103.297 67.6573C103.416 67.9922 103.51 68.3481 103.574 68.7208C103.636 69.0828 103.669 69.4476 103.669 69.8099C103.669 71.5746 102.951 73.1751 101.792 74.3352V74.3421C100.632 75.5016 99.0295 76.2193 97.2598 76.2193C95.4952 76.2193 93.8947 75.5016 92.7346 74.3421L92.7276 74.3352C91.5681 73.1751 90.8505 71.5746 90.8505 69.8099C90.8505 69.4476 90.8831 69.0828 90.9457 68.7208C91.0099 68.3481 91.1034 67.9922 91.2228 67.6573L91.6426 66.4802H102.876L103.297 67.6573ZM99.2885 71.8389C99.7575 71.3686 100.064 70.733 100.116 70.0251H94.4032C94.4554 70.733 94.7619 71.3686 95.2308 71.8389C95.7486 72.3547 96.4657 72.6743 97.2598 72.6743C98.0506 72.6743 98.7671 72.3536 99.2852 71.8356L99.2885 71.8389ZM90.4675 42.4969H104.052C104.806 42.4969 105.49 42.8037 105.984 43.2983C106.479 43.7929 106.786 44.4768 106.786 45.2307V52.9413L104.466 52.1855C103.319 51.8117 102.138 51.5256 100.937 51.3372C99.7725 51.1546 98.5438 51.0589 97.2598 51.0589C95.9756 51.0589 94.7468 51.1546 93.5826 51.3372C92.3815 51.5256 91.2008 51.8117 90.0536 52.1855L87.734 52.9413V45.2307C87.734 44.4821 88.0411 43.8004 88.5354 43.3053V43.2983C89.03 42.8037 89.7141 42.4969 90.4675 42.4969ZM103.241 46.0418H91.2789V48.1836C91.8559 48.0538 92.444 47.9413 93.0428 47.8475C94.4384 47.6287 95.8491 47.514 97.2598 47.514C98.6703 47.514 100.081 47.6287 101.477 47.8475C102.075 47.9413 102.664 48.0538 103.241 48.1839V46.0418Z" fill="white"/>
<path d="M95.4875 44.2694V1.74304H99.0324V44.2694H95.4875ZM97.26 70.0249H73.5195V68.2524C73.5195 62.4792 76.2142 57.2659 80.57 53.5052C84.8575 49.804 90.7602 47.514 97.26 47.514C103.76 47.514 109.662 49.8037 113.95 53.5052C118.305 57.2659 121 62.4792 121 68.2524V70.0249H97.26ZM77.1708 66.4799H117.349C116.867 62.4834 114.774 58.886 111.637 56.1776C107.974 53.0151 102.892 51.0589 97.26 51.0589C91.6277 51.0589 86.5453 53.0153 82.8823 56.1776C79.7455 58.886 77.6529 62.4834 77.1708 66.4799Z" fill="white"/>
<path d="M103.297 67.6573C103.416 67.9922 103.51 68.3481 103.574 68.7207C103.637 69.0828 103.669 69.4476 103.669 69.8099C103.669 71.5745 102.952 73.1751 101.792 74.3351V74.3421C100.633 75.5016 99.0299 76.2192 97.2602 76.2192C95.4955 76.2192 93.895 75.5016 92.735 74.3421L92.728 74.3351C91.5685 73.1751 90.8508 71.5745 90.8508 69.8099C90.8508 69.4476 90.8835 69.0828 90.946 68.7207C91.0102 68.3481 91.1037 67.9922 91.2232 67.6573L91.643 66.4802H102.877L103.297 67.6573ZM99.2889 71.8389C99.7578 71.3685 100.064 70.733 100.117 70.0251H94.4036C94.4558 70.733 94.7623 71.3685 95.2312 71.8389C95.749 72.3547 96.4661 72.6743 97.2602 72.6743C98.051 72.6743 98.7675 72.3536 99.2856 71.8355L99.2889 71.8389ZM90.4679 42.4969H104.052C104.806 42.4969 105.49 42.8037 105.985 43.2983C106.479 43.7929 106.786 44.4767 106.786 45.2307V52.9413L104.466 52.1854C103.319 51.8117 102.138 51.5256 100.937 51.3372C99.7729 51.1546 98.5442 51.0589 97.2602 51.0589C95.9759 51.0589 94.7472 51.1546 93.583 51.3372C92.3819 51.5256 91.2012 51.8117 90.0539 52.1854L87.7344 52.9413V45.2307C87.7344 44.482 88.0414 43.8004 88.5358 43.3052V43.2983C89.0304 42.8037 89.7145 42.4969 90.4679 42.4969ZM103.241 46.0418H91.2793V48.1836C91.8563 48.0538 92.4444 47.9413 93.0431 47.8475C94.4388 47.6287 95.8495 47.5139 97.2602 47.5139C98.6706 47.5139 100.081 47.6287 101.477 47.8475C102.076 47.9413 102.664 48.0538 103.241 48.1839V46.0418Z" fill="white"/>
<path d="M99.0324 44.2694C99.0324 45.2483 98.2389 46.0419 97.26 46.0419C96.2811 46.0419 95.4875 45.2483 95.4875 44.2694V2.95893C95.4875 1.98002 96.2811 1.18646 97.26 1.18646C98.2389 1.18646 99.0324 1.98002 99.0324 2.95893V44.2694ZM97.26 70.0249H73.5195V68.2524C73.5195 62.4792 76.2142 57.2659 80.57 53.5052C84.8575 49.804 90.7602 47.514 97.26 47.514C103.76 47.514 109.662 49.8037 113.95 53.5052C118.305 57.2659 121 62.4792 121 68.2524V70.0249H97.26ZM77.1708 66.4799H117.349C116.867 62.4834 114.774 58.886 111.637 56.1776C107.974 53.0151 102.892 51.0589 97.26 51.0589C91.6277 51.0589 86.5453 53.0153 82.8823 56.1776C79.7455 58.886 77.6529 62.4834 77.1708 66.4799Z" fill="white"/>
</svg>
