<svg width="444" height="136" viewBox="0 0 444 136" fill="none" xmlns="http://www.w3.org/2000/svg">
<g opacity="0.5">
<path d="M72.1681 35.5936C68.4774 31.8949 63.8971 29.208 58.8677 27.7913V22.3531C58.8677 21.1127 58.3848 19.9449 57.5058 19.0675C56.6323 18.1993 55.4517 17.7105 54.2201 17.7071H52.0786V2.3125C52.0786 1.89396 51.9123 1.49255 51.6164 1.1966C51.3204 0.900641 50.919 0.734375 50.5005 0.734375C50.0819 0.734375 49.6805 0.900641 49.3846 1.1966C49.0886 1.49255 48.9224 1.89396 48.9224 2.3125V17.7071H46.7793C45.5562 17.7071 44.3584 18.2026 43.4936 19.0675C43.0608 19.4979 42.7177 20.01 42.4842 20.574C42.2507 21.138 42.1314 21.7427 42.1333 22.3531V27.8055C29.2952 31.4573 19.8564 43.2633 19.8564 57.2565V61.6216C19.8564 62.0401 20.0227 62.4415 20.3187 62.7375C20.6146 63.0335 21.016 63.1997 21.4346 63.1997H38.9533C39.7282 68.8873 44.6046 73.2887 50.5005 73.2887C56.3964 73.2887 61.2728 68.8873 62.0476 63.1997H79.5664C79.9849 63.1997 80.3863 63.0335 80.6823 62.7375C80.9782 62.4415 81.1445 62.0401 81.1445 61.6216V57.2612C81.1445 49.0771 77.9567 41.3806 72.1681 35.5936ZM45.2895 22.3531C45.2887 22.1574 45.3266 21.9634 45.4011 21.7824C45.4755 21.6014 45.5851 21.4369 45.7234 21.2984C45.8618 21.1599 46.0261 21.0502 46.2071 20.9755C46.388 20.9009 46.5819 20.8627 46.7777 20.8634H54.2201C54.6146 20.8644 54.9928 21.0209 55.2727 21.2989C55.4117 21.437 55.5219 21.6012 55.597 21.7822C55.672 21.9632 55.7104 22.1572 55.7099 22.3531V27.0859C53.9871 26.7825 52.2418 26.6257 50.4926 26.6172C48.7156 26.6172 46.9828 26.8018 45.2879 27.0938L45.2895 22.3531ZM50.5005 70.1324C46.3484 70.1324 42.8939 67.1403 42.149 63.1997H58.8503C58.107 67.1387 54.6525 70.1324 50.5005 70.1324ZM77.9883 60.0435H23.0127V57.2565C23.0127 42.1018 35.341 29.7719 50.5005 29.7719C57.8419 29.7719 64.7446 32.6314 69.9367 37.8235C75.1287 43.0155 77.9883 49.9182 77.9883 57.2597V60.0435ZM50.5005 84.749C50.0819 84.749 49.6805 84.9153 49.3846 85.2112C49.0886 85.5072 48.9224 85.9086 48.9224 86.3271V90.6875C48.9224 91.106 49.0886 91.5074 49.3846 91.8034C49.6805 92.0994 50.0819 92.2656 50.5005 92.2656C50.919 92.2656 51.3204 92.0994 51.6164 91.8034C51.9123 91.5074 52.0786 91.106 52.0786 90.6875V86.3271C52.0786 85.9086 51.9123 85.5072 51.6164 85.2112C51.3204 84.9153 50.919 84.749 50.5005 84.749ZM64.2207 82.2287C64.1178 82.0478 63.9802 81.889 63.8157 81.7615C63.6512 81.634 63.4631 81.5403 63.2623 81.4858C63.0614 81.4312 62.8518 81.417 62.6454 81.4438C62.439 81.4706 62.24 81.538 62.0597 81.6421C61.8795 81.7461 61.7216 81.8848 61.5952 82.0501C61.4688 82.2155 61.3763 82.4042 61.3231 82.6054C61.2699 82.8066 61.257 83.0163 61.2852 83.2225C61.3134 83.4287 61.3821 83.6273 61.4874 83.8069L63.6668 87.5833C63.7696 87.7643 63.9073 87.923 64.0718 88.0506C64.2362 88.1781 64.4243 88.2718 64.6252 88.3263C64.826 88.3809 65.0357 88.3951 65.2421 88.3683C65.4485 88.3415 65.6475 88.2741 65.8277 88.17C66.008 88.066 66.1659 87.9273 66.2923 87.7619C66.4187 87.5966 66.5112 87.4079 66.5644 87.2067C66.6176 87.0055 66.6304 86.7957 66.6022 86.5895C66.574 86.3833 66.5053 86.1847 66.4001 86.0052L64.2207 82.2287ZM76.4622 74.7879L72.6858 72.6085C72.3235 72.4025 71.8944 72.3482 71.4923 72.4574C71.0901 72.5666 70.7474 72.8304 70.5391 73.1913C70.3307 73.5522 70.2735 73.9809 70.3801 74.3838C70.4866 74.7867 70.7481 75.1311 71.1076 75.3418L74.8841 77.5212C75.0634 77.6255 75.2615 77.6932 75.4671 77.7206C75.6727 77.748 75.8817 77.7344 76.0821 77.6808C76.2824 77.6271 76.4702 77.5343 76.6345 77.4078C76.7989 77.2813 76.9366 77.1235 77.0398 76.9436C77.2491 76.5811 77.3058 76.1504 77.1975 75.7461C77.0891 75.3419 76.8247 74.9972 76.4622 74.7879ZM28.3152 72.6085L24.5387 74.7879C24.1792 74.9986 23.9177 75.3431 23.8112 75.7459C23.7046 76.1488 23.7618 76.5775 23.9702 76.9384C24.1786 77.2993 24.5212 77.5631 24.9234 77.6723C25.3256 77.7815 25.7546 77.7272 26.1169 77.5212L29.8933 75.3418C30.2528 75.1311 30.5144 74.7867 30.6209 74.3838C30.7274 73.9809 30.6702 73.5522 30.4619 73.1913C30.2535 72.8304 29.9108 72.5666 29.5087 72.4574C29.1065 72.3482 28.6775 72.4025 28.3152 72.6085ZM38.936 81.6496C38.5734 81.4407 38.1428 81.3843 37.7387 81.4926C37.3345 81.6008 36.9898 81.865 36.7803 82.2272L34.6009 86.0036C34.3949 86.3659 34.3406 86.7949 34.4498 87.1971C34.5589 87.5993 34.8228 87.9419 35.1837 88.1503C35.5446 88.3587 35.9732 88.4158 36.3761 88.3093C36.779 88.2028 37.1234 87.9413 37.3342 87.5818L39.5136 83.8053C39.7228 83.4428 39.7795 83.0121 39.6712 82.6078C39.5629 82.2035 39.2984 81.8589 38.936 81.6496Z" fill="white"/>
</g>
<g opacity="0.5">
<path d="M117.441 15.9928C115.578 14.1252 113.265 12.7684 110.725 12.053V9.30702C110.725 8.68067 110.481 8.09098 110.037 7.64792C109.596 7.20954 109 6.96272 108.378 6.96102H107.297V-0.8125C107.297 -1.02384 107.213 -1.22653 107.064 -1.37598C106.914 -1.52542 106.711 -1.60937 106.5 -1.60938C106.289 -1.60937 106.086 -1.52542 105.937 -1.37598C105.787 -1.22653 105.703 -1.02384 105.703 -0.8125V6.96102H104.621C104.003 6.96102 103.399 7.21123 102.962 7.64792C102.743 7.86529 102.57 8.12385 102.452 8.40864C102.334 8.69343 102.274 8.99878 102.275 9.30702V12.0602C95.7925 13.9042 91.0264 19.8656 91.0264 26.9315V29.1357C91.0264 29.347 91.1103 29.5497 91.2598 29.6991C91.4092 29.8486 91.6119 29.9325 91.8232 29.9325H100.669C101.061 32.8045 103.523 35.027 106.5 35.027C109.477 35.027 111.94 32.8045 112.331 29.9325H121.177C121.388 29.9325 121.591 29.8486 121.74 29.6991C121.89 29.5497 121.974 29.347 121.974 29.1357V26.9339C121.974 22.8013 120.364 18.9149 117.441 15.9928ZM103.869 9.30702C103.868 9.20818 103.888 9.11023 103.925 9.01883C103.963 8.92742 104.018 8.84436 104.088 8.77444C104.158 8.70451 104.241 8.6491 104.332 8.6114C104.423 8.5737 104.521 8.55445 104.62 8.55477H108.378C108.578 8.55529 108.769 8.63431 108.91 8.7747C108.98 8.84441 109.036 8.92736 109.074 9.01873C109.111 9.11011 109.131 9.2081 109.131 9.30702V11.6968C108.261 11.5436 107.379 11.4644 106.496 11.4602C105.599 11.4602 104.724 11.5534 103.868 11.7008L103.869 9.30702ZM106.5 33.4332C104.404 33.4332 102.659 31.9223 102.283 29.9325H110.716C110.341 31.9215 108.597 33.4332 106.5 33.4332ZM120.38 28.3388H92.6201V26.9315C92.6201 19.2791 98.8453 13.0531 106.5 13.0531C110.207 13.0531 113.693 14.4971 116.314 17.1188C118.936 19.7405 120.38 23.226 120.38 26.9331V28.3388ZM106.5 40.8139C106.289 40.8139 106.086 40.8978 105.937 41.0473C105.787 41.1967 105.703 41.3994 105.703 41.6107V43.8125C105.703 44.0238 105.787 44.2265 105.937 44.376C106.086 44.5254 106.289 44.6094 106.5 44.6094C106.711 44.6094 106.914 44.5254 107.064 44.376C107.213 44.2265 107.297 44.0238 107.297 43.8125V41.6107C107.297 41.3994 107.213 41.1967 107.064 41.0473C106.914 40.8978 106.711 40.8139 106.5 40.8139ZM113.428 39.5412C113.376 39.4499 113.307 39.3697 113.224 39.3053C113.141 39.2409 113.046 39.1936 112.944 39.1661C112.843 39.1385 112.737 39.1313 112.633 39.1449C112.528 39.1584 112.428 39.1925 112.337 39.245C112.246 39.2975 112.166 39.3676 112.102 39.4511C112.039 39.5345 111.992 39.6298 111.965 39.7314C111.938 39.833 111.932 39.9389 111.946 40.0431C111.96 40.1472 111.995 40.2475 112.048 40.3381L113.148 42.245C113.2 42.3364 113.27 42.4166 113.353 42.481C113.436 42.5454 113.531 42.5927 113.632 42.6202C113.734 42.6478 113.84 42.655 113.944 42.6414C114.048 42.6279 114.149 42.5938 114.24 42.5413C114.331 42.4887 114.41 42.4187 114.474 42.3352C114.538 42.2518 114.585 42.1565 114.612 42.0549C114.638 41.9533 114.645 41.8474 114.631 41.7432C114.616 41.6391 114.582 41.5388 114.529 41.4482L113.428 39.5412ZM119.609 35.784L117.703 34.6835C117.52 34.5795 117.303 34.5521 117.1 34.6072C116.897 34.6623 116.724 34.7956 116.619 34.9778C116.513 35.16 116.485 35.3765 116.538 35.5799C116.592 35.7834 116.724 35.9573 116.906 36.0637L118.813 37.1642C118.903 37.2168 119.003 37.251 119.107 37.2649C119.211 37.2787 119.316 37.2718 119.418 37.2447C119.519 37.2176 119.613 37.1708 119.696 37.1069C119.779 37.043 119.849 36.9634 119.901 36.8725C120.007 36.6895 120.035 36.472 119.981 36.2678C119.926 36.0637 119.792 35.8897 119.609 35.784ZM95.2976 34.6835L93.3907 35.784C93.2092 35.8904 93.0771 36.0643 93.0233 36.2678C92.9695 36.4712 92.9984 36.6876 93.1036 36.8699C93.2088 37.0521 93.3818 37.1853 93.5849 37.2405C93.788 37.2956 94.0046 37.2682 94.1876 37.1642L96.0945 36.0637C96.276 35.9573 96.4081 35.7834 96.4619 35.5799C96.5157 35.3765 96.4868 35.16 96.3816 34.9778C96.2764 34.7956 96.1033 34.6623 95.9003 34.6072C95.6972 34.5521 95.4805 34.5795 95.2976 34.6835ZM100.661 39.2488C100.478 39.1433 100.26 39.1148 100.056 39.1695C99.8519 39.2242 99.6779 39.3576 99.5721 39.5405L98.4716 41.4474C98.3676 41.6303 98.3401 41.8469 98.3953 42.05C98.4504 42.2531 98.5836 42.4261 98.7659 42.5313C98.9481 42.6366 99.1646 42.6654 99.368 42.6116C99.5714 42.5579 99.7453 42.4258 99.8518 42.2443L100.952 40.3373C101.058 40.1543 101.087 39.9368 101.032 39.7327C100.977 39.5285 100.844 39.3545 100.661 39.2488Z" fill="white"/>
</g>
<g clip-path="url(#clip0_362_565)">
<g opacity="0.5">
<path d="M276.528 96.6708C276.528 104.782 281.704 112 289.482 112C297.261 112 302.437 104.782 302.437 96.6708H276.528ZM301.165 21.4966H292.84V-14H286.125V21.4966H277.8L270.932 38.1817H308.033L301.165 21.4966ZM330.501 61.3318C325.737 54.5814 319.013 49.1378 311.057 45.5867C311.042 45.5793 311.024 45.5719 311.008 45.5645H267.957C267.941 45.5719 267.923 45.5793 267.908 45.5867C259.952 49.1378 253.227 54.5814 248.464 61.3318C243.557 68.2814 240.965 76.3238 240.965 84.5901V89.288H338V84.5901C338 76.3238 335.408 68.2814 330.501 61.3318Z" fill="white"/>
</g>
<g opacity="0.5">
<path d="M357.871 16.7768C355.934 14.8359 353.53 13.426 350.891 12.6826V9.82886C350.891 9.17795 350.638 8.56514 350.176 8.1047C349.718 7.64912 349.099 7.39263 348.452 7.39086H347.329V-0.6875C347.329 -0.907132 347.241 -1.11777 347.086 -1.27307C346.931 -1.42838 346.72 -1.51562 346.5 -1.51562C346.281 -1.51562 346.07 -1.42838 345.915 -1.27307C345.76 -1.11777 345.672 -0.907132 345.672 -0.6875V7.39086H344.548C343.906 7.39086 343.277 7.65089 342.824 8.1047C342.596 8.33059 342.416 8.5993 342.294 8.89525C342.171 9.19121 342.109 9.50854 342.11 9.82886V12.69C335.373 14.6063 330.42 20.8015 330.42 28.1445V30.4351C330.42 30.6547 330.507 30.8654 330.662 31.0207C330.818 31.176 331.028 31.2632 331.248 31.2632H340.441C340.848 34.2478 343.407 36.5574 346.5 36.5574C349.594 36.5574 352.153 34.2478 352.56 31.2632H361.753C361.972 31.2632 362.183 31.176 362.338 31.0207C362.494 30.8654 362.581 30.6547 362.581 30.4351V28.147C362.581 23.8523 360.908 19.8136 357.871 16.7768ZM343.766 9.82886C343.766 9.72615 343.785 9.62436 343.825 9.52937C343.864 9.43438 343.921 9.34806 343.994 9.2754C344.066 9.20273 344.153 9.14514 344.247 9.10596C344.342 9.06678 344.444 9.04678 344.547 9.04711H348.452C348.659 9.04765 348.858 9.12978 349.005 9.27567C349.078 9.34811 349.135 9.43431 349.175 9.52927C349.214 9.62423 349.234 9.72606 349.234 9.82886V12.3124C348.33 12.1532 347.414 12.0709 346.496 12.0665C345.564 12.0665 344.655 12.1633 343.765 12.3165L343.766 9.82886ZM346.5 34.9012C344.322 34.9012 342.509 33.331 342.118 31.2632H350.882C350.492 33.3302 348.679 34.9012 346.5 34.9012ZM360.925 29.607H332.076V28.1445C332.076 20.192 338.545 13.7219 346.5 13.7219C350.353 13.7219 353.975 15.2224 356.7 17.947C359.424 20.6715 360.925 24.2937 360.925 28.1462V29.607ZM346.5 42.5713C346.281 42.5713 346.07 42.6585 345.915 42.8138C345.76 42.9691 345.672 43.1798 345.672 43.3994V45.6875C345.672 45.9071 345.76 46.1178 345.915 46.2731C346.07 46.4284 346.281 46.5156 346.5 46.5156C346.72 46.5156 346.931 46.4284 347.086 46.2731C347.241 46.1178 347.329 45.9071 347.329 45.6875V43.3994C347.329 43.1798 347.241 42.9691 347.086 42.8138C346.931 42.6585 346.72 42.5713 346.5 42.5713ZM353.7 41.2487C353.646 41.1538 353.574 41.0705 353.488 41.0036C353.401 40.9367 353.303 40.8875 353.197 40.8589C353.092 40.8302 352.982 40.8228 352.874 40.8368C352.765 40.8509 352.661 40.8863 352.566 40.9409C352.472 40.9955 352.389 41.0683 352.322 41.155C352.256 41.2418 352.208 41.3408 352.18 41.4464C352.152 41.552 352.145 41.662 352.16 41.7702C352.175 41.8784 352.211 41.9827 352.266 42.0769L353.409 44.0586C353.463 44.1535 353.536 44.2368 353.622 44.3038C353.708 44.3707 353.807 44.4199 353.912 44.4485C354.018 44.4771 354.128 44.4846 354.236 44.4705C354.344 44.4564 354.449 44.4211 354.543 44.3664C354.638 44.3118 354.721 44.2391 354.787 44.1523C354.854 44.0655 354.902 43.9665 354.93 43.8609C354.958 43.7554 354.965 43.6453 354.95 43.5371C354.935 43.4289 354.899 43.3247 354.844 43.2305L353.7 41.2487ZM360.124 37.3441L358.142 36.2005C357.952 36.0924 357.727 36.0639 357.516 36.1212C357.305 36.1785 357.125 36.317 357.016 36.5063C356.906 36.6957 356.876 36.9207 356.932 37.1321C356.988 37.3435 357.125 37.5242 357.314 37.6348L359.296 38.7785C359.39 38.8332 359.494 38.8687 359.602 38.8831C359.71 38.8975 359.819 38.8904 359.924 38.8622C360.03 38.834 360.128 38.7853 360.214 38.719C360.301 38.6526 360.373 38.5698 360.427 38.4754C360.537 38.2852 360.567 38.0591 360.51 37.847C360.453 37.6348 360.314 37.454 360.124 37.3441ZM334.859 36.2005L332.877 37.3441C332.688 37.4547 332.551 37.6355 332.495 37.8469C332.439 38.0583 332.469 38.2832 332.579 38.4726C332.688 38.662 332.868 38.8005 333.079 38.8577C333.29 38.915 333.515 38.8865 333.705 38.7785L335.687 37.6348C335.875 37.5242 336.013 37.3435 336.069 37.1321C336.124 36.9207 336.094 36.6957 335.985 36.5063C335.876 36.317 335.696 36.1785 335.485 36.1212C335.274 36.0639 335.049 36.0924 334.859 36.2005ZM340.432 40.9448C340.242 40.8352 340.016 40.8056 339.804 40.8624C339.592 40.9193 339.411 41.0579 339.301 41.2479L338.157 43.2296C338.049 43.4197 338.021 43.6449 338.078 43.8559C338.135 44.0669 338.274 44.2468 338.463 44.3561C338.652 44.4654 338.877 44.4954 339.089 44.4395C339.3 44.3837 339.481 44.2464 339.591 44.0578L340.735 42.076C340.845 41.8858 340.875 41.6598 340.818 41.4477C340.761 41.2355 340.622 41.0546 340.432 40.9448Z" fill="white"/>
</g>
</g>
<g opacity="0.5">
<path d="M146.828 79.0506C146.828 84.8443 150.892 90 157 90C163.109 90 167.173 84.8443 167.173 79.0506H146.828ZM166.174 25.3547H159.637V0H154.363V25.3547H147.826L142.433 37.2727H171.567L166.174 25.3547ZM189.21 53.8084C185.47 48.9867 180.189 45.0984 173.942 42.5619C173.93 42.5566 173.916 42.5514 173.903 42.5461H140.097C140.085 42.5514 140.071 42.5566 140.058 42.5619C133.811 45.0984 128.531 48.9867 124.79 53.8084C120.937 58.7725 118.901 64.517 118.901 70.4215V73.7771H195.099V70.4215C195.099 64.517 193.063 58.7725 189.21 53.8084Z" fill="white"/>
</g>
<g opacity="0.5">
<path d="M395.5 -17.9167C394.611 -17.9167 393.883 -17.1892 393.883 -16.3V20.9318C388.516 21.724 384.394 26.3315 384.394 31.909C384.394 33.849 383.537 35.692 382.033 36.9368L365.98 50.3228C365.462 50.7593 365.268 51.4707 365.495 52.1173C365.721 52.764 366.335 53.1843 367.014 53.1843H384.264C385.056 58.681 389.793 62.9167 395.5 62.9167C401.207 62.9167 405.944 58.681 406.736 53.1682H423.986C424.665 53.1682 425.279 52.7478 425.505 52.1012C425.732 51.4545 425.538 50.7432 425.02 50.3067L408.967 36.9207C408.229 36.3068 407.635 35.5383 407.227 34.6694C406.819 33.8006 406.607 32.8527 406.607 31.8928C406.607 26.3153 402.468 21.6917 397.117 20.9157V-16.3C397.117 -17.1892 396.389 -17.9167 395.5 -17.9167ZM395.5 59.6833C393.625 59.6804 391.808 59.0307 390.356 57.8438C388.904 56.6569 387.906 55.0055 387.53 53.1682H403.454C403.084 55.0055 402.09 56.6584 400.64 57.846C399.191 59.0336 397.374 59.6828 395.5 59.6833ZM403.373 31.909C403.373 34.819 404.65 37.5512 406.881 39.4103L419.508 49.9348H371.476L384.103 39.4103C385.203 38.4949 386.088 37.348 386.694 36.0514C387.301 34.7548 387.614 33.3404 387.611 31.909C387.653 29.8464 388.501 27.8824 389.975 26.4384C391.448 24.9945 393.429 24.1858 395.492 24.1858C397.555 24.1858 399.536 24.9945 401.009 26.4384C402.483 27.8824 403.331 29.8464 403.373 31.909Z" fill="white"/>
</g>
<defs>
<clipPath id="clip0_362_565">
<rect width="143" height="143" fill="white" transform="translate(230 -7)"/>
</clipPath>
</defs>
</svg>
