<svg xmlns="http://www.w3.org/2000/svg" version="1.1" xmlns:xlink="http://www.w3.org/1999/xlink" width="512" height="512" x="0" y="0" viewBox="0 0 512 512" style="enable-background:new 0 0 512 512" xml:space="preserve" class=""><g><path d="M363 56.5h-7.5V49c0-4.142-3.357-7.5-7.5-7.5s-7.5 3.358-7.5 7.5v7.5H333a7.5 7.5 0 0 0-7.5 7.5 7.5 7.5 0 0 0 7.5 7.5h7.5V79c0 4.142 3.357 7.5 7.5 7.5s7.5-3.358 7.5-7.5v-7.5h7.5a7.5 7.5 0 0 0 7.5-7.5 7.5 7.5 0 0 0-7.5-7.5zM487.751 279.527h-7.5v-7.5c0-4.142-3.357-7.5-7.5-7.5s-7.5 3.358-7.5 7.5v7.5h-7.5a7.5 7.5 0 0 0-7.5 7.5 7.5 7.5 0 0 0 7.5 7.5h7.5v7.5c0 4.142 3.357 7.5 7.5 7.5s7.5-3.358 7.5-7.5v-7.5h7.5a7.5 7.5 0 0 0 7.5-7.5 7.5 7.5 0 0 0-7.5-7.5zM61.213 181.347h-7.5v-7.5a7.5 7.5 0 0 0-15 0v7.5h-7.5a7.5 7.5 0 0 0 0 15h7.5v7.5a7.5 7.5 0 0 0 15 0v-7.5h7.5a7.5 7.5 0 0 0 0-15zM138 288.105h-4.5v-4.5a7.5 7.5 0 0 0-15 0v4.5H114a7.5 7.5 0 0 0 0 15h4.5v4.5a7.5 7.5 0 0 0 15 0v-4.5h4.5a7.5 7.5 0 0 0 0-15zM280 288.105h-4.5v-4.5c0-4.142-3.357-7.5-7.5-7.5s-7.5 3.358-7.5 7.5v4.5H256a7.5 7.5 0 0 0 0 15h4.5v4.5c0 4.142 3.357 7.5 7.5 7.5s7.5-3.358 7.5-7.5v-4.5h4.5a7.5 7.5 0 0 0 7.5-7.5 7.5 7.5 0 0 0-7.5-7.5zM209 288.105h-4.5v-4.5a7.5 7.5 0 0 0-15 0v4.5H185a7.5 7.5 0 0 0 0 15h4.5v4.5a7.5 7.5 0 0 0 15 0v-4.5h4.5a7.5 7.5 0 0 0 0-15zM281 76.5H160.333a7.5 7.5 0 0 0 0 15H273.5v77h-155v-77h9.5a7.5 7.5 0 0 0 0-15h-17a7.5 7.5 0 0 0-7.5 7.5v92a7.5 7.5 0 0 0 7.5 7.5h170a7.5 7.5 0 0 0 7.5-7.5V84a7.5 7.5 0 0 0-7.5-7.5z" fill="#000000" opacity="1" data-original="#000000" class=""></path><path d="M504.5 425.5h-28.669V413c0-9.649-7.851-17.5-17.5-17.5h-20.197v-179h41.187a7.502 7.502 0 0 0 7.355-8.973l-20.016-100a7.5 7.5 0 0 0-7.354-6.028h-59.969a7.5 7.5 0 0 0-7.354 6.028l-20.016 100a7.502 7.502 0 0 0 7.355 8.973h43.813v179h-20.803c-9.649 0-17.5 7.851-17.5 17.5v12.5H339.5v-15H353c6.341 0 11.5-5.159 11.5-11.5v-86c0-6.341-5.159-11.5-11.5-11.5h-11.5v-41.28c0-16.939-13.781-30.72-30.72-30.72H83.22c-16.939 0-30.72 13.781-30.72 30.72v4.446a7.5 7.5 0 0 0 15 0v-4.446c0-8.668 7.052-15.72 15.72-15.72h227.56c8.668 0 15.72 7.052 15.72 15.72v41.28H321c-6.341 0-11.5 5.159-11.5 11.5v36.5H288a7.5 7.5 0 0 0-7.5 7.5 7.5 7.5 0 0 0 7.5 7.5h21.5v31h-225v-31H256a7.5 7.5 0 0 0 7.5-7.5 7.5 7.5 0 0 0-7.5-7.5H84.5V313c0-6.341-5.159-11.5-11.5-11.5h-5.5V297a7.5 7.5 0 0 0-15 0v4.5H41c-6.341 0-11.5 5.159-11.5 11.5v86c0 6.341 5.159 11.5 11.5 11.5h13.5v15h-47A7.5 7.5 0 0 0 0 433v30a7.5 7.5 0 0 0 7.5 7.5h497a7.5 7.5 0 0 0 7.5-7.5v-30a7.5 7.5 0 0 0-7.5-7.5zm-116.029-224 17.012-85h47.674l17.013 85h-81.699zm11.36 211.5c0-1.378 1.121-2.5 2.5-2.5h56c1.379 0 2.5 1.122 2.5 2.5v12.5h-61V413zM324.5 316.5h25v79h-25v-79zm0 94v15h-255v-15h255zm-280-15v-79h25v79h-25zm452.5 60H15v-15h482v15z" fill="#000000" opacity="1" data-original="#000000" class=""></path></g></svg>