<svg width="136" height="128" viewBox="0 0 136 128" fill="none" xmlns="http://www.w3.org/2000/svg">
<path d="M68 18.7549C67.2541 18.7549 66.5387 19.0545 66.0113 19.5878C65.4838 20.1211 65.1875 20.8444 65.1875 21.5986V75.4308C65.1875 76.185 65.4838 76.9083 66.0113 77.4417C66.5387 77.975 67.2541 78.2746 68 78.2746C68.7459 78.2746 69.4613 77.975 69.9887 77.4417C70.5162 76.9083 70.8125 76.185 70.8125 75.4308V21.5986C70.8125 20.8444 70.5162 20.1211 69.9887 19.5878C69.4613 19.0545 68.7459 18.7549 68 18.7549Z" fill="white"/>
<path d="M24.2939 18.7549C23.548 18.7549 22.8327 19.0545 22.3052 19.5878C21.7778 20.1211 21.4814 20.8444 21.4814 21.5986V41.7324C21.4814 42.4866 21.7778 43.2099 22.3052 43.7432C22.8327 44.2765 23.548 44.5761 24.2939 44.5761C25.0399 44.5761 25.7552 44.2765 26.2827 43.7432C26.8101 43.2099 27.1064 42.4866 27.1064 41.7324V21.5986C27.1064 20.8444 26.8101 20.1211 26.2827 19.5878C25.7552 19.0545 25.0399 18.7549 24.2939 18.7549Z" fill="white"/>
<path d="M111.65 18.7549C110.904 18.7549 110.189 19.0545 109.662 19.5878C109.134 20.1211 108.838 20.8444 108.838 21.5986V41.7324C108.838 42.4866 109.134 43.2099 109.662 43.7432C110.189 44.2765 110.904 44.5761 111.65 44.5761C112.396 44.5761 113.112 44.2765 113.639 43.7432C114.167 43.2099 114.463 42.4866 114.463 41.7324V21.5986C114.463 20.8444 114.167 20.1211 113.639 19.5878C113.112 19.0545 112.396 18.7549 111.65 18.7549Z" fill="white"/>
<path d="M40.3811 0.327637V11.7026C40.3309 12.3669 40.076 12.9986 39.6522 13.5087C39.2284 14.0189 38.657 14.3818 38.0186 14.5464C36.9197 14.9199 35.9213 15.5456 35.1015 16.3745C34.2818 17.2033 33.663 18.2128 33.2936 19.3239C33.1307 19.9694 32.7718 20.5471 32.2673 20.9757C31.7628 21.4042 31.138 21.6619 30.4811 21.7126H18.1061C17.4504 21.6578 16.8277 21.3985 16.3239 20.9707C15.8202 20.5428 15.4602 19.9674 15.2936 19.3239C14.9241 18.2128 14.3053 17.2033 13.4856 16.3745C12.6658 15.5456 11.6674 14.9199 10.5686 14.5464C9.93406 14.3742 9.36719 14.0091 8.94465 13.5005C8.5221 12.9919 8.26428 12.3643 8.20605 11.7026V0.327637H24H40.3811Z" fill="white"/>
<path d="M84.1152 0.327637V11.7026C84.057 12.3643 83.7992 12.9919 83.3766 13.5005C82.9541 14.0091 82.3872 14.3742 81.7527 14.5464C80.6539 14.9199 79.6555 15.5456 78.8357 16.3745C78.016 17.2033 77.3971 18.2128 77.0277 19.3239C76.8649 19.9694 76.506 20.5471 76.0015 20.9757C75.4969 21.4042 74.8722 21.6619 74.2152 21.7126H61.8121C61.1551 21.6619 60.5304 21.4042 60.0259 20.9757C59.5213 20.5471 59.1624 19.9694 58.9996 19.3239C58.6302 18.2128 58.0114 17.2033 57.1916 16.3745C56.3719 15.5456 55.3735 14.9199 54.2746 14.5464C53.6401 14.3742 53.0732 14.0091 52.6507 13.5005C52.2282 12.9919 51.9703 12.3643 51.9121 11.7026V0.327637H68.5H84.1152Z" fill="white"/>
<path d="M127.794 0.327637V11.7026C127.736 12.3643 127.478 12.9919 127.055 13.5005C126.633 14.0091 126.066 14.3742 125.431 14.5464C124.333 14.9199 123.334 15.5456 122.514 16.3745C121.695 17.2033 121.076 18.2128 120.706 19.3239C120.54 19.9674 120.18 20.5428 119.676 20.9707C119.172 21.3985 118.55 21.6578 117.894 21.7126H105.491C104.834 21.6619 104.209 21.4042 103.705 20.9757C103.2 20.5471 102.841 19.9694 102.678 19.3239C102.309 18.2128 101.69 17.2033 100.87 16.3745C100.051 15.5456 99.0522 14.9199 97.9533 14.5464C97.3149 14.3818 96.7435 14.0189 96.3197 13.5087C95.8959 12.9986 95.641 12.3669 95.5908 11.7026V0.327637H111.5H127.794Z" fill="white"/>
<path d="M6.54688 64.7385V59.6482C6.54688 54.8891 8.41663 50.325 11.7448 46.9598C15.073 43.5946 19.587 41.7041 24.2937 41.7041C29.0005 41.7041 33.5145 43.5946 36.8427 46.9598C40.1709 50.325 42.0406 54.8891 42.0406 59.6482V64.7385L24.2937 68.3785L6.54688 64.7385Z" fill="white"/>
<path d="M16.166 77.1089C16.2883 79.216 17.2024 81.1963 18.7212 82.6445C20.24 84.0927 22.2487 84.8993 24.3363 84.8993C26.4239 84.8993 28.4326 84.0927 29.9514 82.6445C31.4702 81.1963 32.3843 79.216 32.5066 77.1089L24.0691 72.7295L16.166 77.1089Z" fill="#F6E782"/>
<path d="M6.60295 64.7385H42.0404C43.5911 64.8449 45.044 65.5428 46.1052 66.691C47.1664 67.8393 47.7567 69.3521 47.7567 70.9237C47.7567 72.4952 47.1664 74.0081 46.1052 75.1563C45.044 76.3046 43.5911 77.0025 42.0404 77.1088H6.60295C5.05225 77.0025 3.59937 76.3046 2.53819 75.1563C1.47701 74.0081 0.886719 72.4952 0.886719 70.9237C0.886719 69.3521 1.47701 67.8393 2.53819 66.691C3.59937 65.5428 5.05225 64.8449 6.60295 64.7385Z" fill="#0249AC"/>
<path d="M93.9033 64.7385V59.6482C93.9033 54.8891 95.7731 50.325 99.1013 46.9598C102.429 43.5946 106.943 41.7041 111.65 41.7041C116.357 41.7041 120.871 43.5946 124.199 46.9598C127.527 50.325 129.397 54.8891 129.397 59.6482V64.7385L111.65 68.3785L93.9033 64.7385Z" fill="white"/>
<path d="M103.494 77.1089C103.616 79.216 104.531 81.1963 106.049 82.6445C107.568 84.0927 109.577 84.8993 111.664 84.8993C113.752 84.8993 115.761 84.0927 117.28 82.6445C118.798 81.1963 119.712 79.216 119.835 77.1089L111.397 72.7295L103.494 77.1089Z" fill="#F6E782"/>
<path d="M93.9594 64.7385H129.397C130.948 64.8449 132.4 65.5428 133.462 66.691C134.523 67.8393 135.113 69.3521 135.113 70.9237C135.113 72.4952 134.523 74.0081 133.462 75.1563C132.4 76.3046 130.948 77.0025 129.397 77.1088H93.9594C92.4087 77.0025 90.9558 76.3046 89.8946 75.1563C88.8334 74.0081 88.2432 72.4952 88.2432 70.9237C88.2432 69.3521 88.8334 67.8393 89.8946 66.691C90.9558 65.5428 92.4087 64.8449 93.9594 64.7385Z" fill="#0249AC"/>
<path d="M46.7934 102.902V96.8445C46.5312 93.8833 46.8817 90.8993 47.8226 88.0826C48.7635 85.2659 50.2742 82.6782 52.2585 80.4842C54.2427 78.2902 56.6571 76.5381 59.3479 75.3393C62.0386 74.1406 64.9468 73.5215 67.8871 73.5215C70.8275 73.5215 73.7356 74.1406 76.4264 75.3393C79.1171 76.5381 81.5315 78.2902 83.5158 80.4842C85.5 82.6782 87.0107 85.2659 87.9516 88.0826C88.8926 90.8993 89.2431 93.8833 88.9809 96.8445V102.902L67.9996 107.253L46.7934 102.902Z" fill="white"/>
<path d="M58.2402 117.632C58.2402 120.249 59.2684 122.759 61.0987 124.61C62.9289 126.46 65.4113 127.5 67.9996 127.5C70.588 127.5 73.0703 126.46 74.9005 124.61C76.7308 122.759 77.759 120.249 77.759 117.632L67.6621 112.428L58.2402 117.632Z" fill="#F6E782"/>
<path d="M46.8781 102.902H89.0656C90.9976 102.902 92.8504 103.678 94.2165 105.059C95.5825 106.44 96.35 108.314 96.35 110.267C96.35 112.22 95.5825 114.094 94.2165 115.475C92.8504 116.856 90.9976 117.632 89.0656 117.632H46.8781C44.9462 117.632 43.0934 116.856 41.7273 115.475C40.3612 114.094 39.5938 112.22 39.5938 110.267C39.5938 108.314 40.3612 106.44 41.7273 105.059C43.0934 103.678 44.9462 102.902 46.8781 102.902Z" fill="#0249AC"/>
</svg>
