<svg width="146" height="123" viewBox="0 0 146 123" fill="none" xmlns="http://www.w3.org/2000/svg">
<g opacity="0.5">
<path d="M116.831 17.9965C116.836 18.3305 116.998 18.6491 117.282 18.8821C117.566 19.1152 117.948 19.2437 118.345 19.2393C118.741 19.235 119.119 19.0981 119.396 18.8589C119.673 18.6196 119.825 18.2976 119.82 17.9636C119.719 11.4366 117.23 7.15042 117.124 6.97135C117.014 6.78609 116.852 6.62639 116.652 6.50639C116.452 6.38638 116.22 6.30976 115.976 6.28329C115.733 6.25683 115.485 6.28134 115.255 6.35465C115.026 6.42797 114.821 6.54783 114.659 6.70364C110.68 10.542 108.092 14.4454 106.926 18.3405C104.617 15.5475 101.756 13.1099 98.4663 11.1345C98.2612 11.0204 98.0259 10.9505 97.7811 10.9312C97.5364 10.9119 97.2897 10.9437 97.0631 11.0239C96.8364 11.104 96.6367 11.2299 96.4815 11.3906C96.3264 11.5512 96.2206 11.7416 96.1737 11.9449C94.2074 20.4825 95.2891 27.0887 99.3899 31.5847C99.998 32.2516 100.68 32.8685 101.426 33.4272C101.222 33.4332 101.022 33.4745 100.838 33.5484C100.654 33.6223 100.49 33.7272 100.356 33.8568C100.223 33.9863 100.122 34.1376 100.06 34.3013C99.999 34.465 99.9782 34.6376 99.9993 34.8084L101.737 49.2515C101.819 49.9287 102.066 50.5844 102.462 51.1775H80.6148C82.1607 48.9049 84.175 44.7975 84.175 38.8345C84.2347 34.8611 82.8788 30.964 80.2824 27.6466C79.7213 26.9396 79.3928 26.1199 79.3303 25.2711C79.2679 24.4223 79.4737 23.5748 79.9269 22.8148C80.7522 21.5005 81.2006 20.0416 81.2361 18.5551C81.2361 18.221 81.0786 17.9006 80.7982 17.6643C80.5178 17.4281 80.1375 17.2954 79.7409 17.2954H66.2583C65.8617 17.2954 65.4814 17.4281 65.201 17.6643C64.9206 17.9006 64.763 18.221 64.763 18.5551C64.7986 20.0416 65.247 21.5005 66.0723 22.8148C66.5255 23.5748 66.7313 24.4223 66.6688 25.2711C66.6064 26.1199 66.2779 26.9396 65.7168 27.6466C63.1204 30.964 61.7644 34.8611 61.8241 38.8345C61.8241 44.7975 63.8402 48.9049 65.3844 51.1775H47.6647C47.4684 51.1775 47.2739 51.21 47.0925 51.2733C46.911 51.3366 46.7462 51.4294 46.6073 51.5464C46.4685 51.6634 46.3583 51.8023 46.2832 51.9551C46.2081 52.108 46.1695 52.2718 46.1695 52.4372V55.0372C46.1717 56.5459 46.884 57.9922 48.1503 59.0589C49.4166 60.1257 51.1334 60.7257 52.9242 60.7274H58.5615L59.8128 66.6506C60.0339 67.6977 60.6854 68.6459 61.6531 69.329C62.6208 70.012 63.843 70.3863 65.1055 70.3863C66.368 70.3863 67.5902 70.012 68.5579 69.329C69.5256 68.6459 70.1771 67.6977 70.3982 66.6506L71.6495 60.7274H117.364L118.616 66.6506C118.837 67.6977 119.488 68.6459 120.456 69.329C121.424 70.012 122.646 70.3863 123.908 70.3863C125.171 70.3863 126.393 70.012 127.361 69.329C128.328 68.6459 128.98 67.6977 129.201 66.6506L130.452 60.7274H136.09C137.881 60.7257 139.598 60.1256 140.864 59.0589C142.13 57.9921 142.842 56.5458 142.844 55.0372V52.4372C142.844 52.2718 142.806 52.108 142.731 51.9551C142.655 51.8023 142.545 51.6634 142.406 51.5464C142.268 51.4294 142.103 51.3366 141.921 51.2733C141.74 51.21 141.545 51.1775 141.349 51.1775H122.358C122.755 50.5844 123.002 49.9287 123.084 49.2515L124.821 34.8084C124.842 34.6332 124.819 34.4562 124.754 34.2888C124.689 34.1215 124.583 33.9675 124.443 33.8368C124.303 33.7062 124.131 33.6017 123.94 33.5302C123.749 33.4587 123.543 33.4218 123.334 33.4218H122.502C130.047 27.3731 127.956 17.0541 127.847 16.5541C127.795 16.3117 127.66 16.0874 127.458 15.9091C127.256 15.7308 126.997 15.6062 126.712 15.5508C126.427 15.4954 126.129 15.5116 125.855 15.5974C125.581 15.6832 125.343 15.8348 125.17 16.0336C123.182 18.2442 120.73 20.1289 117.935 21.5942C116.411 22.4107 114.994 23.3612 113.708 24.4298C113.428 24.6659 113.27 24.9862 113.27 25.3203C113.27 25.6544 113.427 25.9749 113.707 26.2113C113.987 26.4476 114.368 26.5805 114.764 26.5807C115.161 26.5808 115.541 26.4483 115.822 26.2122C116.957 25.2701 118.207 24.4323 119.552 23.7127C121.591 22.6212 123.478 21.3413 125.18 19.8968C125.252 23.7366 124.289 30.379 117.389 33.4214H112.773C112.757 29.2986 111.559 25.2401 109.28 21.5917C109.698 17.7715 111.724 13.8782 115.309 9.99498C116.283 12.5842 116.795 15.2807 116.831 17.9965ZM64.815 38.8341C64.7561 35.3612 65.9351 31.9533 68.1996 29.0509C69.0557 27.9734 69.5573 26.7239 69.6533 25.4298C69.7492 24.1356 69.4361 22.8432 68.7458 21.6843C68.3849 21.091 68.111 20.463 67.9299 19.814H78.0735C77.8925 20.463 77.6185 21.091 77.2576 21.6843C76.5674 22.8432 76.2542 24.1356 76.3502 25.4298C76.4461 26.7239 76.9477 27.9734 77.8038 29.0509C80.0684 31.9533 81.2474 35.3612 81.1885 38.8341C81.1885 45.78 78.1478 49.9193 77.061 51.1772H68.9408C67.8471 49.9291 64.815 45.8318 64.815 38.8341ZM67.4542 66.2089C67.3562 66.6737 67.0672 67.0946 66.6377 67.3978C66.2083 67.7011 65.6658 67.8672 65.1055 67.8672C64.5452 67.8672 64.0027 67.7011 63.5732 67.3978C63.1438 67.0946 62.8548 66.6737 62.7568 66.2089L61.5974 60.7271H68.6114L67.4542 66.2089ZM126.257 66.2089C126.159 66.6735 125.87 67.0943 125.44 67.3974C125.011 67.7005 124.468 67.8666 123.908 67.8666C123.348 67.8666 122.805 67.7005 122.376 67.3974C121.947 67.0943 121.657 66.6735 121.559 66.2089L120.4 60.7271H127.415L126.257 66.2089ZM139.854 55.0369C139.853 55.8775 139.456 56.6835 138.75 57.2779C138.045 57.8724 137.088 58.2068 136.09 58.2077H52.9242C51.9262 58.2069 50.9694 57.8725 50.2637 57.2781C49.558 56.6836 49.1611 55.8776 49.1599 55.0369V53.6965H139.854V55.0369ZM107.573 51.1772C106.859 51.1786 106.171 50.9561 105.642 50.553C105.112 50.15 104.78 49.5953 104.71 48.9972L103.14 35.9404H121.679L120.109 48.9972C120.039 49.5954 119.707 50.1501 119.177 50.5532C118.648 50.9563 117.959 51.1787 117.246 51.1772H107.573ZM107.115 33.4214C105.694 33.0546 95.9757 29.9582 98.69 14.4762C102.268 17.0686 109.717 23.6357 109.784 33.4214H107.115ZM9.90998 107.068H15.5477L16.799 112.992C17.0201 114.039 17.6716 114.987 18.6394 115.67C19.6071 116.353 20.8293 116.727 22.0917 116.727C23.3542 116.727 24.5764 116.353 25.5441 115.67C26.5118 114.987 27.1634 114.039 27.3845 112.992L28.6358 107.068H74.3505L75.6018 112.992C75.8229 114.039 76.4744 114.987 77.4422 115.67C78.4099 116.353 79.6321 116.727 80.8945 116.727C82.157 116.727 83.3792 116.353 84.3469 115.67C85.3146 114.987 85.9661 114.039 86.1873 112.992L87.4386 107.068H93.0759C94.8666 107.066 96.5834 106.466 97.8497 105.4C99.116 104.333 99.8284 102.886 99.8305 101.378V98.7778C99.8305 98.4437 99.673 98.1233 99.3926 97.8871C99.1122 97.6509 98.7319 97.5182 98.3353 97.5182H92.5855V91.2795C92.5855 91.2571 92.579 91.2361 92.5778 91.2137C92.5765 91.1913 92.5855 91.1706 92.5855 91.1482V84.9421C92.5855 84.6081 92.428 84.2877 92.1476 84.0514C91.8671 83.8152 91.4868 83.6825 91.0903 83.6825H64.1936C63.7971 83.6825 63.4168 83.8152 63.1364 84.0514C62.856 84.2877 62.6984 84.6081 62.6984 84.9421V90.0213H50.3314C49.9348 90.0213 49.5545 90.154 49.2741 90.3903C48.9937 90.6265 48.8362 90.9469 48.8362 91.281V95.0299C48.8362 95.364 48.9937 95.6844 49.2741 95.9207C49.5545 96.1569 49.9348 96.2896 50.3314 96.2896C50.7279 96.2896 51.1082 96.1569 51.3886 95.9207C51.669 95.6844 51.8266 95.364 51.8266 95.0299V92.5392H89.5946V97.5185H39.1778V65.8641C39.1778 65.53 39.0203 65.2096 38.7399 64.9734C38.4595 64.7372 38.0792 64.6045 37.6826 64.6045H30.2169C29.8203 64.6045 29.44 64.7372 29.1596 64.9734C28.8792 65.2096 28.7217 65.53 28.7217 65.8641V78.0827H22.8241V71.1036C22.8241 70.7695 22.6666 70.4491 22.3862 70.2128C22.1058 69.9766 21.7255 69.8439 21.3289 69.8439H12.4401C12.0435 69.8439 11.6632 69.9766 11.3828 70.2128C11.1024 70.4491 10.9449 70.7695 10.9449 71.1036V97.5182H4.65097C4.45462 97.5182 4.26019 97.5508 4.07878 97.6141C3.89737 97.6774 3.73254 97.7701 3.5937 97.8871C3.45486 98.0041 3.34472 98.1429 3.26958 98.2958C3.19444 98.4486 3.15576 98.6124 3.15576 98.7778V101.378C3.15781 102.886 3.87007 104.333 5.13629 105.4C6.4025 106.466 8.11928 107.066 9.90998 107.068ZM65.6906 86.2004H89.5968V89.8904H65.6889L65.6906 86.2004ZM24.4408 112.55C24.3427 113.015 24.0535 113.436 23.624 113.739C23.1946 114.042 22.6522 114.208 22.092 114.208C21.5317 114.208 20.9894 114.042 20.5599 113.739C20.1304 113.436 19.8413 113.015 19.7431 112.55L18.5837 107.068H25.5985L24.4408 112.55ZM83.2432 112.55C83.1453 113.015 82.8562 113.436 82.4268 113.739C81.9973 114.042 81.4549 114.209 80.8945 114.209C80.3342 114.209 79.7917 114.042 79.3623 113.739C78.9328 113.436 78.6438 113.015 78.5459 112.55L77.3865 107.068H84.4L83.2432 112.55ZM31.7121 67.1216H36.1874V97.5182H31.7121V67.1216ZM13.9344 72.3632H19.8337V93.9168C19.8337 94.2509 19.9912 94.5713 20.2716 94.8075C20.552 95.0437 20.9323 95.1765 21.3289 95.1765C21.7255 95.1765 22.1058 95.0437 22.3862 94.8075C22.6666 94.5713 22.8241 94.2509 22.8241 93.9168V80.601H28.7217V97.5196H13.9361L13.9344 72.3632ZM6.14447 100.038H96.8401V101.379C96.8391 102.219 96.4422 103.025 95.7365 103.62C95.0307 104.215 94.0739 104.549 93.0759 104.55H9.90998C8.91211 104.549 7.95543 104.214 7.24983 103.62C6.54423 103.026 6.14732 102.22 6.14619 101.379L6.14447 100.038Z" fill="white"/>
</g>
</svg>
