<?xml version="1.0" encoding="utf-8"?>
<!-- Generator: Adobe Illustrator 28.1.0, SVG Export Plug-In . SVG Version: 6.00 Build 0)  -->
<svg version="1.1" id="Layer_1" xmlns="http://www.w3.org/2000/svg" xmlns:xlink="http://www.w3.org/1999/xlink" x="0px" y="0px"
	 viewBox="0 0 129.1 30.4" style="enable-background:new 0 0 129.1 30.4;" xml:space="preserve">
<style type="text/css">
	.st0{fill:url(#SVGID_1_);}
	.st1{opacity:0.75;}
	.st2{fill:#FFFFFF;}
</style>
<g>
	<path d="M34.1,14.8c-0.8-0.3-1.7-0.5-2.6-0.5c-1.1,0-2.1,0.2-2.9,0.7c-0.8,0.5-1.2,1.1-1.2,2c0,0.4,0.1,0.8,0.3,1.1
		c0.2,0.3,0.5,0.5,1,0.7s0.9,0.3,1.3,0.5s1,0.2,1.7,0.3c0.8,0.1,1.4,0.2,1.9,0.3c0.5,0.1,1,0.3,1.7,0.5c0.6,0.2,1.1,0.5,1.5,0.8
		c0.3,0.3,0.6,0.7,0.9,1.2c0.2,0.5,0.4,1.1,0.4,1.8c0,0.8-0.2,1.6-0.6,2.2c-0.4,0.6-0.9,1.1-1.5,1.5c-0.6,0.3-1.3,0.6-2,0.8
		C33,28.9,32.2,29,31.4,29c-1.5,0-2.8-0.3-4-0.9c-1.2-0.6-2.1-1.5-2.6-2.8l1.6-0.9c0.5,0.9,1.2,1.6,2.1,2.1c0.9,0.5,1.9,0.7,2.9,0.7
		c0.5,0,1,0,1.5-0.1c0.5-0.1,1-0.2,1.4-0.5c0.5-0.2,0.8-0.5,1.1-0.9c0.3-0.4,0.4-0.9,0.4-1.4c0-0.5-0.1-0.9-0.3-1.2
		c-0.2-0.3-0.6-0.6-1-0.8c-0.5-0.2-0.9-0.4-1.4-0.5c-0.5-0.1-1.1-0.2-1.7-0.3c-0.7-0.1-1.3-0.2-1.8-0.3s-1-0.3-1.6-0.5
		s-1-0.5-1.4-0.8s-0.6-0.7-0.9-1.1c-0.2-0.5-0.3-1-0.3-1.6c0-0.8,0.2-1.5,0.5-2.1s0.9-1.1,1.5-1.4c0.6-0.3,1.3-0.6,1.9-0.7
		s1.4-0.2,2.1-0.2c1.4,0,2.5,0.2,3.5,0.6c1,0.4,1.8,1.2,2.5,2.3l-1.5,0.9C35.5,15.7,34.9,15.2,34.1,14.8z"/>
	<path d="M41.5,18.9c1.1-1.1,2.5-1.6,4.1-1.6c1.7,0,3.1,0.5,4.2,1.6s1.6,2.5,1.6,4.2c0,1.7-0.5,3.1-1.6,4.1
		c-1.1,1.1-2.5,1.6-4.2,1.6c-1.7,0-3-0.5-4.1-1.6c-1.1-1.1-1.6-2.5-1.6-4.1C39.8,21.4,40.4,20,41.5,18.9z M48.4,20.1
		c-0.8-0.8-1.7-1.2-2.8-1.2c-1.1,0-2.1,0.4-2.8,1.1c-0.7,0.8-1.1,1.8-1.1,3c0,1.2,0.4,2.1,1.1,2.9c0.7,0.8,1.7,1.1,2.8,1.1
		c1.1,0,2.1-0.4,2.8-1.1c0.7-0.8,1.1-1.7,1.1-2.9C49.6,21.9,49.2,20.9,48.4,20.1z"/>
	<path d="M54.8,17.5l3,9.2l3-9.2h1.5l3,9.2l3-9.2h2l-3.9,11.2h-2.1l-1.5-4.1l-1.2-4.1l-1.2,4.1l-1.5,4.1h-2.1l-3.9-11.2H54.8z"/>
	<path d="M73,13.1c0.4-0.2,0.8-0.2,1.2,0c0.4,0.2,0.6,0.6,0.6,1.1c0,0.5-0.2,0.9-0.6,1.1c-0.4,0.2-0.8,0.2-1.2,0s-0.6-0.6-0.6-1.1
		S72.6,13.3,73,13.1z M72.6,28.7h1.8V17.5h-1.8V28.7z"/>
	<path d="M87,28.7l0-2c-0.4,0.7-1,1.3-1.8,1.7c-0.8,0.4-1.5,0.6-2.3,0.6c-1.6,0-3-0.5-4.1-1.6s-1.6-2.5-1.6-4.2
		c0-1.8,0.5-3.2,1.6-4.2c1.1-1,2.5-1.6,4.1-1.5c0.9,0,1.7,0.2,2.4,0.6c0.8,0.4,1.3,0.9,1.7,1.6l0-2h1.8v11.1L87,28.7L87,28.7z
		 M82.9,19.1c-1.1,0-2.1,0.4-2.8,1.1C79.3,21,79,22,79,23.2s0.4,2.2,1.1,3c0.8,0.8,1.7,1.1,2.8,1.1c0.7,0,1.4-0.2,2-0.5
		c0.6-0.3,1-0.7,1.3-1.2c0.3-0.5,0.5-1,0.7-1.6c0.1-0.6,0.1-1.2,0-1.7c-0.1-0.6-0.4-1.1-0.7-1.6c-0.3-0.5-0.7-0.9-1.3-1.2
		C84.4,19.2,83.7,19.1,82.9,19.1L82.9,19.1z"/>
	<path d="M92.2,17.5h1.7l0.1,1.8c0.9-1.3,2.2-1.9,3.8-1.9c1.4,0,2.6,0.5,3.5,1.4s1.4,2.2,1.4,3.8v6.2h-1.8v-6.1
		c0-1.1-0.3-1.9-0.9-2.5c-0.6-0.6-1.4-0.9-2.5-0.9c-1,0-1.8,0.4-2.5,1.1c-0.6,0.7-1,1.5-1,2.6v6h-1.8V17.5L92.2,17.5z"/>
	<path d="M115.2,27.2c-1.1,1.1-2.5,1.7-4.1,1.7c-1.7,0-3-0.5-4.1-1.5c-1.1-1-1.7-2.4-1.7-4.2c0-1.8,0.5-3.2,1.6-4.2s2.5-1.5,4.2-1.5
		c1.6,0,2.9,0.6,4,1.7l-1.2,1.2c-0.8-0.8-1.7-1.1-2.8-1.1c-1.1,0-2.1,0.4-2.9,1.1s-1.1,1.7-1.1,2.9c0,1.2,0.4,2.2,1.1,2.9
		c0.8,0.7,1.7,1.1,2.8,1.1c1.2,0,2.1-0.4,2.9-1.2L115.2,27.2L115.2,27.2z"/>
	<path d="M127.3,26.9c-0.5,0.6-1.2,1.1-2.1,1.5c-0.9,0.3-1.8,0.5-2.7,0.5c-1.7,0-3.2-0.5-4.2-1.6c-1.1-1.1-1.6-2.5-1.6-4.2
		c0-1.7,0.5-3.1,1.6-4.1s2.5-1.6,4.1-1.6c1.8,0,3.2,0.6,4.3,1.7s1.5,2.7,1.3,4.9h-9.5c0.1,1,0.5,1.8,1.3,2.4
		c0.8,0.6,1.7,0.9,2.8,0.9c0.7,0,1.3-0.1,2-0.4c0.7-0.2,1.2-0.6,1.5-1L127.3,26.9L127.3,26.9z M126.2,22.3c0-1.1-0.4-1.9-1.1-2.5
		c-0.7-0.6-1.6-0.9-2.7-0.9c-1,0-1.9,0.3-2.6,0.9c-0.7,0.6-1.2,1.4-1.3,2.4L126.2,22.3L126.2,22.3z"/>
</g>
<g>
	<linearGradient id="SVGID_1_" gradientUnits="userSpaceOnUse" x1="1.3854" y1="15.5852" x2="20.6659" y2="15.5852">
		<stop  offset="0" style="stop-color:#FF0000"/>
		<stop  offset="0.1091" style="stop-color:#FF1908"/>
		<stop  offset="0.4232" style="stop-color:#FF5E1F"/>
		<stop  offset="0.469" style="stop-color:#FF5B1E"/>
		<stop  offset="1" style="stop-color:#FF892D"/>
	</linearGradient>
	<path class="st0" d="M20.6,12.5c0,0-0.1-0.1-0.1,0c-0.3,0.5-2,1.5-10.4,1.1c0,0,2-10.8-4-11.7c0,0-3.4-0.3-4.7,0.2
		c0,0,6.1-0.8,6,5.6l0,5c0,0-0.2,2.7,1.5,2.7l1.9,0.2c0,0,0,0,0,0h0.6c-0.2,1.4-0.7,7.6-4.3,11.4c0,0-0.1,0.1-0.2,0.2l0.9,2.1
		C7.9,29.2,9,29.2,9.2,29c1-1.1,2.8-4.3,2.9-13.3H15c-0.3,1.6-1.5,9.2-1.5,9.9c0,0-0.2,2.3,1.8,3.1c0,0,3.6,1.2,4-4.5
		c0,0-1.6,3-2.8,3c0,0-2.7,0.1-0.4-11.4h0c0,0,0,0,0,0c0,0,0,0,0.1,0c0.5,0,3.9,0.2,4.2-1.4C20.5,14.2,20.7,13.3,20.6,12.5z"/>
	<g>
		<g>
			<g class="st1">
				<circle cx="7.6" cy="3.7" r="0.3"/>
			</g>
			<g>
				<circle class="st2" cx="7.6" cy="3.7" r="0.3"/>
			</g>
		</g>
	</g>
</g>
</svg>
