<?xml version="1.0" encoding="UTF-8"?>
<svg xmlns="http://www.w3.org/2000/svg" id="Layer_1" data-name="Layer 1" viewBox="0 0 512 512" width="512" height="512"><path d="M159.92,270.136H115.27a5,5,0,1,0,0,10h44.65a5,5,0,1,0,0-10Z"/><path d="M354.472,280.136h44.651a5,5,0,0,0,0-10H354.472a5,5,0,0,0,0,10Z"/><path d="M100.469,364.054h82.152a5,5,0,0,0,0-10H100.469a5,5,0,0,0,0,10Z"/><path d="M68.632,364.054h7.459a5,5,0,1,0,0-10H68.632a5,5,0,0,0,0,10Z"/><path d="M496,222.3H438.808V203.375a5,5,0,0,0-5-5H406.116V130.236h54.8a5,5,0,0,0,4.925-5.864L449.9,33.475a5,5,0,0,0-4.925-4.136H357.263a5,5,0,0,0-4.925,4.136l-15.947,90.9a5,5,0,0,0,4.924,5.864h54.8v68.139H368.425a5,5,0,0,0-5,5V222.3H206.382V181.05a5,5,0,0,0-5-5H124.409l8.451-32a5,5,0,0,0-3.912-6.191l-25.514-4.784a5,5,0,0,0-5.752,3.621l-.1.365-21.26-3.986a5.006,5.006,0,0,0-5.752,3.62L47.645,222.3H16a5,5,0,0,0-5,5l.4,250.365a5,5,0,0,0,5,5H49.887a5,5,0,0,0,5-5V428.442H457.512v49.219a5,5,0,0,0,5,5H496a5,5,0,0,0,5-5V227.3A5,5,0,0,0,496,222.3ZM365.9,120.236H347.269l14.193-80.9h12.6Zm10.05,0,8.16-80.9h56.663l14.193,80.9Zm-2.523,88.139h55.383V222.3H373.425ZM123.458,186.05h72.924v13.92H123.458Zm0,23.92h72.924V222.3H123.458Zm-17.315-66.209,15.675,2.94-19.967,75.6H85.107Zm7.315,73.746V222.3h-1.265ZM79.033,143.761l15.956,2.992L74.755,222.3H58Zm-34.146,328.9H21.4V339.14H44.887ZM21,329.14V232.3H251V329.14Zm436.512,89.3H54.887v-79.3H457.512ZM491,472.661H467.512V339.14H491Zm0-143.521H261V232.3H491Z"/></svg>
