<svg width="40" height="40" viewBox="0 0 40 40" fill="none" xmlns="http://www.w3.org/2000/svg">
<path d="M9.51512 2.12112C5.69693 0.484752 3.3939 2.84839 5.63633 7.15142C5.99996 5.9393 6.06057 4.9696 7.87875 4.60596C9.69693 4.24233 10.6666 3.15142 10.6666 3.15142C10.6666 3.15142 12.1818 4.48475 12.1212 5.63627C12.1212 5.63627 12.303 5.39384 12.4848 5.03021C12.8484 4.48475 12.9697 3.75748 12.7878 3.15142C12.5454 1.87869 11.2727 1.39384 9.51512 2.12112Z" fill="#61C3EA" stroke="#2C3451" stroke-miterlimit="10" stroke-linecap="round" stroke-linejoin="round"/>
<path d="M12.1817 6.06064C12.1817 8.48489 10.6665 10.8485 8.84835 10.8485C7.3332 10.8485 5.99987 9.09095 5.63623 7.21216C5.99987 6.00004 6.06047 5.03034 7.87865 4.6667C9.69684 4.30307 10.6665 3.21216 10.6665 3.21216C10.6665 3.21216 12.1817 4.54549 12.1211 5.69701C12.1817 5.75761 12.1817 5.87882 12.1817 6.06064Z" stroke="#2C3451" stroke-miterlimit="10" stroke-linecap="round" stroke-linejoin="round"/>
<path d="M1.21191 18.7878L1.69676 15.6363C1.87858 14.7272 2.48464 13.9393 3.33313 13.5151L5.93919 12.303C7.93919 14.8484 9.87858 14.8484 11.8786 12.303L14.4846 13.5151C14.7877 13.6363 15.0301 13.8181 15.2725 14.0606" stroke="#2C3451" stroke-miterlimit="10" stroke-linecap="round" stroke-linejoin="round"/>
<path d="M5.93896 12.2423C5.93896 12.2423 7.2723 11.9393 7.57533 10.3635" stroke="#2C3451" stroke-miterlimit="10" stroke-linecap="round" stroke-linejoin="round"/>
<path d="M11.8786 12.2423C11.8786 12.2423 10.4847 11.9393 10.1816 10.3635" stroke="#2C3451" stroke-miterlimit="10" stroke-linecap="round" stroke-linejoin="round"/>
<path d="M20.1211 14.8485L20.7878 17.8788L19.9393 18.8485L19.0908 17.8788L19.6969 14.8485L19.0908 14H20.7878L20.1211 14.8485Z" fill="#F76366"/>
<path d="M12.6665 16.4848C12.8483 15.6363 13.4544 14.909 14.2423 14.5454L15.2726 14.0605L16.9089 13.3333C18.8483 13.8787 20.9089 13.8787 22.9695 13.3333L24.6059 14.1211L25.6362 14.606C25.9392 14.7272 26.1817 14.909 26.3635 15.1514" stroke="#2C3451" stroke-miterlimit="10" stroke-linecap="round" stroke-linejoin="round"/>
<path d="M16.9087 13.2727C16.9087 13.2727 18.3026 12.3031 18.6057 10.7273" stroke="#2C3451" stroke-miterlimit="10" stroke-linecap="round" stroke-linejoin="round"/>
<path d="M22.9695 13.2727C22.9695 13.2727 21.5149 12.3031 21.2119 10.7273" stroke="#2C3451" stroke-miterlimit="10" stroke-linecap="round" stroke-linejoin="round"/>
<path d="M23.3333 6.7272C23.3939 6.30296 23.8788 3.33326 20 4.54538C20 4.54538 18.2424 4.90902 17.0909 4.42417C16.6666 5.03023 16.4848 5.87871 16.4848 6.78781C16.4242 6.7272 15.0303 5.7575 15.8182 3.99993C15.8182 3.99993 15.0303 3.27265 15.5151 1.57568C15.5151 1.57568 16.6666 2.84841 19.1515 1.99993C21.6363 1.09084 23.1515 3.03023 23.1515 3.03023C23.1515 3.03023 25.0303 3.57568 23.3333 6.7272Z" fill="#F76366" stroke="#2C3451" stroke-miterlimit="10" stroke-linecap="round" stroke-linejoin="round"/>
<path d="M23.3334 6.72714C23.2122 8.54532 22.3637 10.0605 21.2122 10.7271C20.788 10.9696 20.3637 11.0908 19.8789 11.0908C19.394 11.0908 18.9698 10.9696 18.5455 10.7271C17.394 10.0605 16.5455 8.54532 16.4243 6.78774C16.4243 5.99986 16.5455 5.15138 17.0304 4.42411C18.2425 4.90896 20.0001 4.54532 20.0001 4.54532C23.8789 3.3332 23.394 6.30289 23.3334 6.72714Z" stroke="#2C3451" stroke-miterlimit="10" stroke-linecap="round" stroke-linejoin="round"/>
<path d="M24.606 14.0606C24.7878 13.8787 25.0302 13.6969 25.2726 13.5757L27.9393 12.303C29.9393 13.5757 31.9999 13.5757 33.9999 12.303L36.6666 13.5757C37.515 13.9999 38.1211 14.7878 38.3029 15.7575L38.8484 18.9696" stroke="#2C3451" stroke-miterlimit="10" stroke-linecap="round" stroke-linejoin="round"/>
<path d="M27.9395 12.3635C27.9395 12.3635 29.3334 12.0604 29.6364 10.4241" stroke="#2C3451" stroke-miterlimit="10" stroke-linecap="round" stroke-linejoin="round"/>
<path d="M33.9392 12.3635C33.9392 12.3635 32.5452 12.0604 32.2422 10.4241" stroke="#2C3451" stroke-miterlimit="10" stroke-linecap="round" stroke-linejoin="round"/>
<path d="M27.515 6.36365C27.515 6.36365 28.4241 5.21213 28.8483 5.03032C29.818 4.60607 32.121 4.60607 33.0907 5.03032C33.515 5.21213 34.3635 6.30304 34.3635 6.30304L34.8483 4.12122C34.9695 3.51516 34.4847 2.96971 33.8786 2.96971C33.8786 2.18183 33.1513 1.51516 32.3635 1.63638L28.0604 2.18183C27.2119 2.30304 26.6059 3.15153 26.8483 4.00001L27.515 6.36365Z" fill="#61C3EA" stroke="#2C3451" stroke-miterlimit="10" stroke-linecap="round" stroke-linejoin="round"/>
<path d="M34.3637 6.30307C34.3031 8.78792 32.7879 10.7879 30.9091 10.7879C29.091 10.7879 27.5758 8.84852 27.4546 6.36367C27.5152 6.24246 28.3637 5.21216 28.7879 5.03034C29.7576 4.6061 32.0607 4.6061 33.0303 5.03034C33.5152 5.15155 34.3637 6.30307 34.3637 6.30307Z" stroke="#2C3451" stroke-miterlimit="10" stroke-linecap="round" stroke-linejoin="round"/>
<path d="M30.9087 13.2727V18.9697Z" fill="#61C3EA"/>
<path d="M30.9087 13.2727V18.9697" stroke="#2C3451" stroke-miterlimit="10" stroke-linecap="round" stroke-linejoin="round"/>
<path d="M33.5151 15.3333H35.8788Z" fill="#61C3EA"/>
<path d="M33.5151 15.3333H35.8788" stroke="#2C3451" stroke-miterlimit="10" stroke-linecap="round" stroke-linejoin="round"/>
<path d="M12.1813 32L13.6359 30.6061C14.1813 30.1212 14.1813 29.2728 13.6965 28.7273C13.2116 28.1819 12.3631 28.1818 11.8177 28.6667L10.3631 30.0606C9.87828 30.5455 9.81767 31.3334 10.3025 31.8788C10.848 32.4849 11.6965 32.4849 12.1813 32Z" stroke="#2C3451" stroke-miterlimit="10" stroke-linecap="round" stroke-linejoin="round"/>
<path d="M13.1512 34.7273L16.1815 31.8182C16.727 31.3333 16.727 30.4849 16.2421 30C15.7573 29.4546 14.9088 29.4546 14.3633 29.9394L11.333 32.8485C10.7876 33.3333 10.7876 34.1818 11.2724 34.6667C11.8179 35.2121 12.6664 35.2121 13.1512 34.7273Z" stroke="#2C3451" stroke-miterlimit="10" stroke-linecap="round" stroke-linejoin="round"/>
<path d="M15.8175 35.7576L17.2721 34.3637C17.8175 33.8788 17.8175 33.0303 17.3327 32.4849C16.8478 31.9394 15.9994 31.9394 15.4539 32.4243L13.9994 33.8182C13.5145 34.3031 13.4539 35.0909 13.9388 35.6364C14.4236 36.2424 15.2721 36.3031 15.8175 35.7576Z" stroke="#2C3451" stroke-miterlimit="10" stroke-linecap="round" stroke-linejoin="round"/>
<path d="M18.0602 37.2727L18.6663 36.6666C19.2117 36.1818 19.2117 35.3333 18.7269 34.7879C18.242 34.2424 17.3936 34.2424 16.8481 34.7272L16.242 35.3333C15.7572 35.8182 15.6966 36.606 16.1814 37.1515C16.6663 37.7575 17.5148 37.8182 18.0602 37.2727Z" stroke="#2C3451" stroke-miterlimit="10" stroke-linecap="round" stroke-linejoin="round"/>
<path d="M20.2422 24.9697L28.9695 31.4546C29.5755 31.8788 29.6967 32.6667 29.2725 33.2728C28.8482 33.8788 28.0604 34 27.4543 33.5758L26.5452 32.9697C27.1513 33.394 27.2725 34.1818 26.8482 34.7879C26.424 35.394 25.6361 35.5152 25.0301 35.0909L24.3028 34.5455M24.3028 34.5455L21.8179 32.7879L24.2422 34.4849C24.2422 34.4849 24.3028 34.4849 24.3028 34.5455ZM24.3028 34.5455C24.8482 34.9697 24.9695 35.7576 24.5452 36.3031C24.121 36.9091 23.3331 37.0303 22.727 36.6061L21.8179 36" stroke="#2C3451" stroke-miterlimit="10" stroke-linecap="round" stroke-linejoin="round"/>
<path d="M18.5449 36.8485L20.3631 38.1818C20.9692 38.6061 21.757 38.4849 22.1813 37.8788C22.6055 37.2728 22.4843 36.4849 21.8783 36.0606L20.3631 34.9697" stroke="#2C3451" stroke-miterlimit="10" stroke-linecap="round" stroke-linejoin="round"/>
<path d="M10.545 30C10.1813 29.6969 9.87831 29.3939 9.63589 28.9697L8.48438 27.0303L12.848 20.7878L14.4238 21.8788C15.0298 22.303 17.5147 22.9697 18.242 22.8484" stroke="#2C3451" stroke-miterlimit="10" stroke-linecap="round" stroke-linejoin="round"/>
<path d="M5.27246 25.8181L7.99973 27.7575L13.3331 20.0605L10.6664 18.1211" fill="#F76366"/>
<path d="M5.27246 25.8181L7.99973 27.7575L13.3331 20.0605L10.6664 18.1211" stroke="#2C3451" stroke-miterlimit="10" stroke-linecap="round" stroke-linejoin="round"/>
<path d="M23.333 30.6665L26.6057 32.9695" stroke="#2C3451" stroke-miterlimit="10" stroke-linecap="round" stroke-linejoin="round"/>
<path d="M28.2419 30.7878C28.545 28.7878 29.5753 28.1817 30.1813 27.4545C30.6662 26.909 31.7571 25.1514 31.7571 25.1514L26.3631 19.0908L25.0298 20.3029C24.4844 20.7878 23.8177 21.0908 23.0904 21.1514L20.7874 21.3332C19.9389 21.3939 19.151 21.8181 18.545 22.4848L15.9995 25.4545C17.2116 26.4848 19.0298 26.3635 20.0601 25.1514L21.3328 23.7575" stroke="#2C3451" stroke-miterlimit="10" stroke-linecap="round" stroke-linejoin="round"/>
<path d="M34.7268 23.7575L32.242 25.6969L25.939 18.4847L28.3632 16.606" fill="#61C3EA"/>
<path d="M34.7268 23.7575L32.242 25.6969L25.939 18.4847L28.3632 16.606" stroke="#2C3451" stroke-miterlimit="10" stroke-linecap="round" stroke-linejoin="round"/>
</svg>
