<?xml version="1.0" encoding="UTF-8"?>
<svg xmlns="http://www.w3.org/2000/svg" xmlns:xlink="http://www.w3.org/1999/xlink" width="256px" height="256px" viewBox="0 0 256 256" version="1.1">
<defs>
<linearGradient id="linear0" gradientUnits="userSpaceOnUse" x1="0.681422" y1="11.8031" x2="19.9733" y2="11.8031" gradientTransform="matrix(12.8,0,0,10.666667,0,0)">
<stop offset="0" style="stop-color:rgb(100%,0%,0%);stop-opacity:1;"/>
<stop offset="0.1091" style="stop-color:rgb(100%,9.803922%,3.137255%);stop-opacity:1;"/>
<stop offset="0.4232" style="stop-color:rgb(100%,36.862745%,12.156863%);stop-opacity:1;"/>
<stop offset="0.469" style="stop-color:rgb(100%,35.686275%,11.764706%);stop-opacity:1;"/>
<stop offset="1" style="stop-color:rgb(100%,53.72549%,17.647059%);stop-opacity:1;"/>
</linearGradient>
<filter id="alpha" filterUnits="objectBoundingBox" x="0%" y="0%" width="100%" height="100%">
  <feColorMatrix type="matrix" in="SourceGraphic" values="0 0 0 0 1 0 0 0 0 1 0 0 0 0 1 0 0 0 1 0"/>
</filter>
<mask id="mask0">
  <g filter="url(#alpha)">
<rect x="0" y="0" width="256" height="256" style="fill:rgb(0%,0%,0%);fill-opacity:0.74902;stroke:none;"/>
  </g>
</mask>
<clipPath id="clip1">
  <rect x="0" y="0" width="256" height="256"/>
</clipPath>
<g id="surface5" clip-path="url(#clip1)">
<path style=" stroke:none;fill-rule:nonzero;fill:rgb(0%,0%,0%);fill-opacity:1;" d="M 88.492188 20 C 90.613281 20 92.335938 18.769531 92.335938 17.25 C 92.335938 15.734375 90.613281 14.503906 88.492188 14.503906 C 86.371094 14.503906 84.648438 15.734375 84.648438 17.25 C 84.648438 18.769531 86.371094 20 88.492188 20 Z M 88.492188 20 "/>
</g>
</defs>
<g id="surface1">
<path style=" stroke:none;fill-rule:nonzero;fill:url(#linear0);" d="M 254.988281 97.867188 C 254.988281 97.867188 253.710938 96.953125 253.710938 97.867188 C 249.867188 102.449219 228.09375 111.609375 120.511719 107.945312 C 120.511719 107.945312 146.125 9.007812 69.28125 0.761719 C 69.28125 0.761719 25.734375 -1.984375 9.085938 2.59375 C 9.085938 2.59375 87.210938 -4.734375 85.929688 53.894531 L 85.929688 99.699219 C 85.929688 99.699219 83.371094 124.433594 105.140625 124.433594 L 129.476562 126.269531 L 137.160156 126.269531 C 134.601562 139.09375 128.195312 195.890625 82.089844 230.703125 C 82.089844 230.703125 80.808594 231.621094 79.527344 232.535156 L 91.054688 251.773438 C 92.335938 250.859375 106.421875 249.941406 108.984375 248.109375 C 121.792969 238.03125 144.847656 208.71875 146.125 126.269531 L 183.269531 126.269531 C 179.425781 140.925781 164.058594 210.550781 164.058594 216.960938 C 164.058594 216.960938 161.496094 238.03125 187.109375 245.359375 C 187.109375 245.359375 233.21875 256.355469 238.339844 204.136719 C 238.339844 204.136719 217.847656 231.621094 202.480469 231.621094 C 202.480469 231.621094 167.898438 232.535156 197.355469 127.183594 C 197.355469 127.183594 197.355469 127.183594 198.636719 127.183594 C 205.039062 127.183594 248.585938 129.015625 252.429688 114.359375 C 253.710938 113.441406 256.269531 105.199219 254.988281 97.867188 Z M 254.988281 97.867188 "/>
<use xlink:href="#surface5" mask="url(#mask0)"/>
<path style=" stroke:none;fill-rule:nonzero;fill:rgb(100%,100%,100%);fill-opacity:1;" d="M 88.492188 20 C 90.613281 20 92.335938 18.769531 92.335938 17.25 C 92.335938 15.734375 90.613281 14.503906 88.492188 14.503906 C 86.371094 14.503906 84.648438 15.734375 84.648438 17.25 C 84.648438 18.769531 86.371094 20 88.492188 20 Z M 88.492188 20 "/>
</g>
</svg>
